<?xml version="1.0" encoding="utf-8"?>
<!-- Generator: Adobe Illustrator 17.0.0, SVG Export Plug-In . SVG Version: 6.00 Build 0)  -->
<!DOCTYPE svg PUBLIC "-//W3C//DTD SVG 1.1//EN" "http://www.w3.org/Graphics/SVG/1.1/DTD/svg11.dtd">
<svg version="1.1" xmlns="http://www.w3.org/2000/svg" xmlns:xlink="http://www.w3.org/1999/xlink" x="0px" y="0px" width="960px"
	 height="1024.998px" viewBox="0 0 960 1024.998" enable-background="new 0 0 960 1024.998" xml:space="preserve">
<g id="bkgd">
</g>
<g id="Norwester">
	<g>
		<rect x="10" y="18.998" fill="#4E4E4E" width="940" height="64"/>
		<g>
			<path fill="#FFFFFF" d="M301.63,38.586c0.341,0,0.496,0.187,0.496,0.496v3.102c0,0.31-0.155,0.496-0.496,0.496h-3.597v20.215
				c0,0.342-0.155,0.496-0.496,0.496h-3.225c-0.31,0-0.496-0.154-0.496-0.496V42.679h-3.597c-0.31,0-0.496-0.187-0.496-0.496v-3.102
				c0-0.31,0.186-0.496,0.496-0.496H301.63z"/>
			<path fill="#FFFFFF" d="M314.649,39.082c0-0.31,0.186-0.496,0.496-0.496h3.194c0.372,0,0.527,0.187,0.527,0.496v23.812
				c0,0.311-0.155,0.496-0.527,0.496h-3.194c-0.31,0-0.496-0.186-0.496-0.496v-9.859h-3.969v9.859c0,0.311-0.186,0.496-0.496,0.496
				h-3.194c-0.372,0-0.527-0.186-0.527-0.496V39.082c0-0.31,0.155-0.496,0.527-0.496h3.194c0.31,0,0.496,0.187,0.496,0.496v9.86
				h3.969V39.082z"/>
			<path fill="#FFFFFF" d="M336.195,42.183c0,0.31-0.124,0.526-0.496,0.526h-7.752v6.201h5.922c0.31,0,0.496,0.187,0.496,0.527
				v3.069c0,0.342-0.186,0.527-0.496,0.527h-5.922v6.264h7.752c0.372,0,0.496,0.154,0.496,0.496v3.1
				c0,0.311-0.124,0.496-0.496,0.496h-11.41c-0.279,0-0.465-0.186-0.465-0.496V39.082c0-0.31,0.186-0.496,0.465-0.496h11.41
				c0.372,0,0.496,0.187,0.496,0.496V42.183z"/>
			<path fill="#FFFFFF" d="M370.668,38.586c0.403,0,0.62,0.248,0.589,0.651l-2.666,23.564c-0.031,0.403-0.248,0.589-0.651,0.589
				h-3.039c-0.372,0-0.589-0.186-0.682-0.558l-3.225-14.015l-3.256,14.046c-0.093,0.341-0.31,0.526-0.682,0.526h-3.101
				c-0.403,0-0.62-0.186-0.651-0.589l-2.542-23.564c-0.031-0.403,0.186-0.651,0.589-0.651h2.945c0.372,0,0.62,0.218,0.651,0.59
				l1.209,14.511h0.155l3.069-14.542c0.093-0.372,0.31-0.559,0.682-0.559h1.86c0.372,0,0.589,0.187,0.682,0.559l3.039,14.542h0.155
				l1.271-14.511c0.031-0.372,0.279-0.59,0.651-0.59H370.668z"/>
			<path fill="#FFFFFF" d="M384.398,39.082c0-0.31,0.186-0.496,0.496-0.496h3.194c0.372,0,0.527,0.187,0.527,0.496v23.812
				c0,0.311-0.155,0.496-0.527,0.496h-3.194c-0.31,0-0.496-0.186-0.496-0.496v-9.859h-3.969v9.859c0,0.311-0.186,0.496-0.496,0.496
				h-3.194c-0.372,0-0.527-0.186-0.527-0.496V39.082c0-0.31,0.155-0.496,0.527-0.496h3.194c0.31,0,0.496,0.187,0.496,0.496v9.86
				h3.969V39.082z"/>
			<path fill="#FFFFFF" d="M393.573,43.05c0-2.914,1.55-4.465,4.465-4.465h3.473c2.915,0,4.465,1.551,4.465,4.465v15.875
				c0,2.915-1.55,4.465-4.465,4.465h-3.473c-2.915,0-4.465-1.55-4.465-4.465V43.05z M400.735,59.391c0.806,0,1.24-0.403,1.24-1.24
				V43.826c0-0.806-0.435-1.24-1.24-1.24h-1.799c-0.806,0-1.24,0.435-1.24,1.24v14.325c0,0.837,0.435,1.24,1.24,1.24H400.735z"/>
			<path fill="#FFFFFF" d="M415.149,59.298h7.379c0.341,0,0.496,0.186,0.496,0.496v3.1c0,0.342-0.155,0.496-0.496,0.496h-11.1
				c-0.31,0-0.496-0.154-0.496-0.496V39.082c0-0.31,0.186-0.496,0.496-0.496h3.225c0.341,0,0.496,0.187,0.496,0.496V59.298z"/>
			<path fill="#FFFFFF" d="M439.733,42.183c0,0.31-0.124,0.526-0.496,0.526h-7.751v6.201h5.922c0.31,0,0.496,0.187,0.496,0.527
				v3.069c0,0.342-0.186,0.527-0.496,0.527h-5.922v6.264h7.751c0.372,0,0.496,0.154,0.496,0.496v3.1
				c0,0.311-0.124,0.496-0.496,0.496h-11.41c-0.279,0-0.465-0.186-0.465-0.496V39.082c0-0.31,0.186-0.496,0.465-0.496h11.41
				c0.372,0,0.496,0.187,0.496,0.496V42.183z"/>
			<path fill="#FFFFFF" d="M464.285,63.39c-0.372,0-0.589-0.154-0.713-0.465l-3.907-9.209l-1.147,2.202v6.853
				c0,0.402-0.217,0.619-0.62,0.619h-2.977c-0.403,0-0.62-0.217-0.62-0.619V39.207c0-0.403,0.217-0.621,0.62-0.621h2.977
				c0.403,0,0.62,0.218,0.62,0.621v9.611l4.775-9.767c0.155-0.311,0.372-0.466,0.713-0.466h3.256c0.465,0,0.651,0.311,0.434,0.744
				l-5.271,10.821l5.612,12.526c0.217,0.403,0.031,0.713-0.465,0.713H464.285z"/>
			<path fill="#FFFFFF" d="M476.498,38.586c0.31,0,0.496,0.187,0.496,0.496v23.812c0,0.311-0.186,0.496-0.496,0.496h-3.225
				c-0.341,0-0.496-0.186-0.496-0.496V39.082c0-0.31,0.155-0.496,0.496-0.496H476.498z"/>
			<path fill="#FFFFFF" d="M493.238,38.586c0.342,0,0.496,0.187,0.496,0.496v3.102c0,0.31-0.154,0.496-0.496,0.496h-3.596v20.215
				c0,0.342-0.155,0.496-0.496,0.496h-3.225c-0.311,0-0.496-0.154-0.496-0.496V42.679h-3.598c-0.31,0-0.496-0.187-0.496-0.496
				v-3.102c0-0.31,0.187-0.496,0.496-0.496H493.238z"/>
			<path fill="#FFFFFF" d="M517.791,38.586c0.402,0,0.619,0.218,0.619,0.621v2.852c0,0.403-0.217,0.621-0.619,0.621h-4.744
				c-0.838,0-1.24,0.434-1.24,1.24v3.503c0,0.775,0.434,1.21,1.24,1.21h2.883v-1.24c0-0.403,0.218-0.621,0.621-0.621h2.945
				c0.402,0,0.62,0.218,0.62,0.621v1.24h1.302c0.403,0,0.62,0.217,0.62,0.619v2.854c0,0.402-0.217,0.619-0.62,0.619h-1.302v10.047
				c0,0.402-0.218,0.619-0.62,0.619h-7.317c-2.915,0-4.496-1.55-4.496-4.465v-6.015c0-1.147,0.837-2.016,1.953-2.201v-0.062
				c-1.116-0.186-1.953-1.054-1.953-2.201V43.05c0-2.914,1.581-4.465,4.496-4.465H517.791z M515.93,52.724h-2.883
				c-0.838,0-1.24,0.435-1.24,1.24v4.094c0,0.837,0.434,1.24,1.24,1.24h2.883V52.724z"/>
			<path fill="#FFFFFF" d="M546.589,63.39c-0.372,0-0.589-0.154-0.713-0.465l-3.907-9.209l-1.146,2.202v6.853
				c0,0.402-0.218,0.619-0.621,0.619h-2.977c-0.402,0-0.619-0.217-0.619-0.619V39.207c0-0.403,0.217-0.621,0.619-0.621h2.977
				c0.403,0,0.621,0.218,0.621,0.621v9.611l4.774-9.767c0.155-0.311,0.372-0.466,0.713-0.466h3.256c0.465,0,0.651,0.311,0.435,0.744
				l-5.271,10.821l5.612,12.526c0.217,0.403,0.03,0.713-0.466,0.713H546.589z"/>
			<path fill="#FFFFFF" d="M564.879,63.39c-0.278,0-0.434-0.154-0.496-0.434l-0.867-4.527h-5.52l-0.837,4.527
				c-0.062,0.279-0.218,0.434-0.496,0.434h-3.317c-0.342,0-0.496-0.186-0.403-0.526l5.146-23.844
				c0.062-0.31,0.248-0.435,0.527-0.435h4.31c0.279,0,0.465,0.125,0.527,0.435l5.146,23.844c0.062,0.341-0.062,0.526-0.434,0.526
				H564.879z M558.771,54.834h3.969l-1.984-10.821L558.771,54.834z"/>
			<path fill="#FFFFFF" d="M584.44,48.755c0,1.147-0.837,2.016-1.954,2.202v0.062c1.117,0.187,1.954,1.055,1.954,2.201v5.705
				c0,2.915-1.581,4.465-4.496,4.465h-7.441c-0.31,0-0.496-0.186-0.496-0.496V39.082c0-0.341,0.187-0.496,0.496-0.496h7.441
				c2.915,0,4.496,1.551,4.496,4.465V48.755z M579.076,48.942c0.807,0,1.24-0.435,1.24-1.209v-3.813c0-0.807-0.403-1.24-1.24-1.24
				h-2.821v6.263H579.076z M579.076,59.298c0.807,0,1.24-0.403,1.24-1.24v-3.783c0-0.807-0.403-1.24-1.24-1.24h-2.821v6.264H579.076
				z"/>
			<path fill="#FFFFFF" d="M589.398,43.05c0-2.914,1.55-4.465,4.465-4.465h3.473c2.914,0,4.465,1.551,4.465,4.465v15.875
				c0,2.915-1.551,4.465-4.465,4.465h-3.473c-2.915,0-4.465-1.55-4.465-4.465V43.05z M596.561,59.391c0.806,0,1.24-0.403,1.24-1.24
				V43.826c0-0.806-0.435-1.24-1.24-1.24h-1.799c-0.806,0-1.24,0.435-1.24,1.24v14.325c0,0.837,0.435,1.24,1.24,1.24H596.561z"/>
			<path fill="#FFFFFF" d="M606.758,43.05c0-2.914,1.551-4.465,4.465-4.465h3.473c2.914,0,4.465,1.551,4.465,4.465v15.875
				c0,2.915-1.551,4.465-4.465,4.465h-3.473c-2.914,0-4.465-1.55-4.465-4.465V43.05z M613.92,59.391c0.807,0,1.24-0.403,1.24-1.24
				V43.826c0-0.806-0.434-1.24-1.24-1.24h-1.798c-0.807,0-1.24,0.435-1.24,1.24v14.325c0,0.837,0.434,1.24,1.24,1.24H613.92z"/>
			<path fill="#FFFFFF" d="M624.117,39.082c0-0.31,0.155-0.496,0.496-0.496h7.441c2.915,0,4.465,1.582,4.465,4.496v15.844
				c0,2.915-1.55,4.465-4.465,4.465h-7.441c-0.341,0-0.496-0.154-0.496-0.496V39.082z M631.188,59.298c0.806,0,1.24-0.403,1.24-1.24
				V43.95c0-0.837-0.435-1.271-1.24-1.271h-2.854v16.619H631.188z"/>
			<path fill="#FFFFFF" d="M645.694,59.298h7.38c0.341,0,0.496,0.186,0.496,0.496v3.1c0,0.342-0.155,0.496-0.496,0.496h-11.101
				c-0.31,0-0.496-0.154-0.496-0.496V39.082c0-0.31,0.187-0.496,0.496-0.496h3.225c0.341,0,0.496,0.187,0.496,0.496V59.298z"/>
			<path fill="#FFFFFF" d="M669.659,42.183c0,0.31-0.124,0.526-0.496,0.526h-7.752v6.201h5.923c0.31,0,0.496,0.187,0.496,0.527
				v3.069c0,0.342-0.187,0.527-0.496,0.527h-5.923v6.264h7.752c0.372,0,0.496,0.154,0.496,0.496v3.1
				c0,0.311-0.124,0.496-0.496,0.496h-11.41c-0.279,0-0.466-0.186-0.466-0.496V39.082c0-0.31,0.187-0.496,0.466-0.496h11.41
				c0.372,0,0.496,0.187,0.496,0.496V42.183z"/>
		</g>
		<g>
			<path fill="#4E4E4E" d="M64.133,154.017c-0.532,0-0.827-0.295-0.945-0.826l-1.653-8.622H51.023l-1.595,8.622
				c-0.118,0.531-0.413,0.826-0.945,0.826h-6.318c-0.649,0-0.944-0.354-0.768-1.004l9.803-45.41
				c0.118-0.591,0.473-0.827,1.004-0.827h8.208c0.531,0,0.886,0.236,1.004,0.827l9.803,45.41c0.118,0.649-0.118,1.004-0.827,1.004
				H64.133z M52.499,137.719h7.559l-3.779-20.609L52.499,137.719z"/>
		</g>
		<g>
			<path fill="#4E4E4E" d="M161.678,126.145c0,2.185-1.594,3.838-3.72,4.192v0.118c2.126,0.354,3.72,2.008,3.72,4.192v10.866
				c0,5.551-3.011,8.503-8.562,8.503h-14.172c-0.591,0-0.945-0.354-0.945-0.944v-45.352c0-0.649,0.354-0.945,0.945-0.945h14.172
				c5.552,0,8.562,2.953,8.562,8.504V126.145z M151.462,126.5c1.535,0,2.362-0.827,2.362-2.303v-7.264
				c0-1.535-0.768-2.362-2.362-2.362h-5.373V126.5H151.462z M151.462,146.222c1.535,0,2.362-0.768,2.362-2.361v-7.205
				c0-1.535-0.768-2.361-2.362-2.361h-5.373v11.928H151.462z"/>
		</g>
		<g>
			<path fill="#4E4E4E" d="M256.958,121.657c0,0.591-0.354,0.945-0.944,0.945h-5.905c-0.649,0-0.944-0.354-0.944-0.945v-4.724
				c0-1.535-0.827-2.362-2.362-2.362h-3.071c-1.594,0-2.361,0.827-2.361,2.362v26.928c0,1.594,0.826,2.361,2.361,2.361h3.071
				c1.535,0,2.362-0.768,2.362-2.361v-4.725c0-0.591,0.295-0.944,0.944-0.944h5.905c0.591,0,0.944,0.354,0.944,0.944v6.378
				c0,5.551-3.011,8.503-8.503,8.503h-6.614c-5.551,0-8.562-2.952-8.562-8.503V115.28c0-5.551,3.012-8.504,8.562-8.504h6.614
				c5.492,0,8.503,2.953,8.503,8.504V121.657z"/>
		</g>
		<g>
			<path fill="#4E4E4E" d="M327.748,107.721c0-0.591,0.296-0.945,0.945-0.945h14.172c5.552,0,8.504,3.012,8.504,8.562v30.176
				c0,5.551-2.952,8.503-8.504,8.503h-14.172c-0.649,0-0.945-0.295-0.945-0.944V107.721z M341.211,146.222
				c1.535,0,2.362-0.768,2.362-2.361v-26.869c0-1.594-0.827-2.421-2.362-2.421h-5.433v31.651H341.211z"/>
		</g>
		<g>
			<path fill="#4E4E4E" d="M445.62,113.627c0,0.59-0.235,1.004-0.944,1.004h-14.763v11.81h11.278c0.591,0,0.945,0.354,0.945,1.004
				v5.847c0,0.649-0.354,1.004-0.945,1.004h-11.278v11.928h14.763c0.709,0,0.944,0.296,0.944,0.945v5.905
				c0,0.59-0.235,0.944-0.944,0.944h-21.731c-0.531,0-0.886-0.354-0.886-0.944v-45.352c0-0.591,0.354-0.945,0.886-0.945h21.731
				c0.709,0,0.944,0.354,0.944,0.945V113.627z"/>
		</g>
		<g>
			<path fill="#4E4E4E" d="M540.369,113.627c0,0.59-0.354,0.944-0.945,0.944h-14.645v11.869h11.102c0.591,0,0.945,0.354,0.945,0.945
				v5.905c0,0.649-0.354,0.944-0.945,0.944h-11.102v18.838c0,0.59-0.354,0.944-0.944,0.944h-6.142c-0.649,0-0.945-0.354-0.945-0.944
				v-45.352c0-0.591,0.296-0.945,0.945-0.945h21.73c0.591,0,0.945,0.354,0.945,0.945V113.627z"/>
		</g>
		<g>
			<path fill="#4E4E4E" d="M608.318,115.28c0-5.551,2.953-8.504,8.504-8.504h7.795c5.491,0,8.503,2.953,8.503,8.504v6.141
				c0,0.591-0.354,0.945-0.944,0.945h-5.905c-0.649,0-0.945-0.354-0.945-0.945v-4.487c0-1.535-0.826-2.362-2.361-2.362h-4.252
				c-1.595,0-2.362,0.827-2.362,2.362v26.928c0,1.594,0.827,2.361,2.362,2.361h4.252c1.535,0,2.361-0.768,2.361-2.361v-7.913h-3.07
				c-0.649,0-0.944-0.354-0.944-0.945v-5.905c0-0.649,0.295-0.944,0.944-0.944h9.921c0.591,0,0.944,0.295,0.944,0.944v16.417
				c0,5.551-3.012,8.503-8.503,8.503h-7.795c-5.551,0-8.504-2.952-8.504-8.503V115.28z"/>
		</g>
		<g>
			<path fill="#4E4E4E" d="M717.778,107.721c0-0.591,0.354-0.945,0.945-0.945h6.082c0.709,0,1.004,0.354,1.004,0.945v45.352
				c0,0.59-0.295,0.944-1.004,0.944h-6.082c-0.591,0-0.945-0.354-0.945-0.944v-18.778h-7.559v18.778c0,0.59-0.354,0.944-0.944,0.944
				h-6.083c-0.708,0-1.004-0.354-1.004-0.944v-45.352c0-0.591,0.296-0.945,1.004-0.945h6.083c0.59,0,0.944,0.354,0.944,0.945V126.5
				h7.559V107.721z"/>
		</g>
		<g>
			<path fill="#4E4E4E" d="M812.071,106.776c0.59,0,0.944,0.354,0.944,0.945v45.352c0,0.59-0.354,0.944-0.944,0.944h-6.142
				c-0.649,0-0.945-0.354-0.945-0.944v-45.352c0-0.591,0.296-0.945,0.945-0.945H812.071z"/>
		</g>
		<g>
			<path fill="#4E4E4E" d="M905.898,107.721c0-0.591,0.296-0.945,0.945-0.945h6.141c0.591,0,0.945,0.354,0.945,0.945v37.793
				c0,5.551-3.012,8.503-8.504,8.503h-6.613c-5.551,0-8.504-2.952-8.504-8.503v-6.142c0-0.591,0.296-0.945,0.945-0.945h5.905
				c0.59,0,0.944,0.354,0.944,0.945v4.488c0,1.535,0.827,2.361,2.362,2.361h3.07c1.536,0,2.362-0.826,2.362-2.361V107.721z"/>
		</g>
		<g>
			<path fill="#4E4E4E" d="M62.42,246.017c-0.708,0-1.122-0.295-1.357-0.886l-7.44-17.538l-2.186,4.192v13.051
				c0,0.768-0.413,1.181-1.181,1.181h-5.669c-0.768,0-1.182-0.413-1.182-1.181v-44.879c0-0.768,0.414-1.182,1.182-1.182h5.669
				c0.768,0,1.181,0.414,1.181,1.182v18.306l9.094-18.602c0.296-0.59,0.709-0.886,1.358-0.886h6.2c0.886,0,1.24,0.591,0.827,1.417
				l-10.039,20.609l10.688,23.856c0.413,0.769,0.06,1.358-0.886,1.358H62.42z"/>
		</g>
		<g>
			<path fill="#4E4E4E" d="M146.355,238.222h14.055c0.649,0,0.944,0.354,0.944,0.945v5.905c0,0.649-0.295,0.944-0.944,0.944h-21.141
				c-0.591,0-0.945-0.295-0.945-0.944v-45.352c0-0.591,0.354-0.945,0.945-0.945h6.142c0.649,0,0.944,0.354,0.944,0.945V238.222z"/>
		</g>
		<g>
			<path fill="#4E4E4E" d="M260.767,198.776c0.768,0,1.182,0.414,1.182,1.182v44.879c0,0.768-0.414,1.181-1.182,1.181h-5.491
				c-0.768,0-1.182-0.413-1.182-1.181v-26.573h-0.413l-5.846,26.691c-0.178,0.708-0.591,1.062-1.3,1.062h-2.894
				c-0.708,0-1.122-0.354-1.299-1.062l-5.846-26.691h-0.414v26.573c0,0.768-0.413,1.181-1.181,1.181h-5.433
				c-0.768,0-1.182-0.413-1.182-1.181v-44.879c0-0.768,0.414-1.182,1.182-1.182h7.795c0.708,0,1.122,0.354,1.299,1.063l6.555,29.407
				l6.555-29.407c0.177-0.709,0.591-1.063,1.299-1.063H260.767z"/>
		</g>
		<g>
			<path fill="#4E4E4E" d="M351.221,198.776c0.591,0,0.945,0.354,0.945,0.945v45.352c0,0.59-0.354,0.944-0.945,0.944h-5.846
				c-0.532,0-0.886-0.236-1.063-0.768l-9.034-25.215h-0.296v25.038c0,0.59-0.295,0.944-0.944,0.944h-6.142
				c-0.591,0-0.945-0.354-0.945-0.944v-45.352c0-0.591,0.354-0.945,0.945-0.945h5.846c0.532,0,0.886,0.236,1.063,0.768l8.976,25.098
				h0.354v-24.92c0-0.591,0.295-0.945,0.944-0.945H351.221z"/>
		</g>
		<g>
			<path fill="#4E4E4E" d="M422.028,207.28c0-5.551,2.953-8.504,8.504-8.504h6.613c5.552,0,8.504,2.953,8.504,8.504v30.234
				c0,5.551-2.952,8.503-8.504,8.503h-6.613c-5.551,0-8.504-2.952-8.504-8.503V207.28z M435.669,238.4
				c1.535,0,2.361-0.768,2.361-2.362v-27.282c0-1.535-0.826-2.361-2.361-2.361h-3.425c-1.536,0-2.362,0.826-2.362,2.361v27.282
				c0,1.595,0.826,2.362,2.362,2.362H435.669z"/>
		</g>
		<g>
			<path fill="#4E4E4E" d="M516.748,199.721c0-0.591,0.354-0.945,0.945-0.945h14.172c5.552,0,8.504,2.953,8.504,8.504v14.408
				c0,5.492-2.952,8.504-8.504,8.504h-7.086v14.881c0,0.59-0.295,0.944-0.944,0.944h-6.142c-0.591,0-0.945-0.354-0.945-0.944
				V199.721z M529.976,222.397c1.595,0,2.362-0.886,2.362-2.362v-11.102c0-1.535-0.768-2.362-2.362-2.362h-5.196v15.826H529.976z"/>
		</g>
		<g>
			<path fill="#4E4E4E" d="M632.529,237.514c0,3.72-1.299,6.259-3.839,7.559l2.362,5.078c0.296,0.649-0.177,1.062-0.826,1.062
				h-6.142c-0.591,0-0.768-0.354-1.004-0.826l-2.008-4.37h-3.661c-5.551,0-8.504-2.952-8.504-8.503V207.28
				c0-5.551,2.953-8.504,8.504-8.504h6.613c5.552,0,8.504,2.953,8.504,8.504V237.514z M616.939,235.861
				c0,1.594,0.827,2.361,2.362,2.361h3.07c1.535,0,2.362-0.768,2.362-2.361v-26.928c0-1.535-0.827-2.362-2.362-2.362h-3.07
				c-1.535,0-2.362,0.827-2.362,2.362V235.861z"/>
		</g>
		<g>
			<path fill="#4E4E4E" d="M726.135,221.688c0,3.957-1.477,6.555-4.311,7.795l4.074,15.472c0.178,0.708-0.177,1.062-0.826,1.062
				h-6.142c-0.591,0-0.886-0.295-1.004-0.826l-3.956-14.999h-4.075v14.881c0,0.59-0.354,0.944-0.944,0.944h-6.142
				c-0.591,0-0.945-0.354-0.945-0.944v-45.352c0-0.591,0.354-0.945,0.945-0.945h14.822c5.551,0,8.503,2.953,8.503,8.504V221.688z
				 M709.896,222.397h5.847c1.535,0,2.361-0.827,2.361-2.362v-11.102c0-1.535-0.826-2.362-2.361-2.362h-5.847V222.397z"/>
		</g>
		<g>
			<path fill="#4E4E4E" d="M812.306,198.776c5.552,0,8.504,2.953,8.504,8.504v6.259c0,0.591-0.295,0.945-0.945,0.945h-6.141
				c-0.591,0-0.945-0.354-0.945-0.945v-4.605c0-1.535-0.768-2.362-2.362-2.362h-2.834c-1.477,0-2.362,0.827-2.362,2.362v8.149
				l14.055,4.605c1.004,0.413,1.535,1.063,1.535,2.185v13.642c0,5.551-2.952,8.503-8.504,8.503h-6.613
				c-5.492,0-8.504-2.952-8.504-8.503v-6.2c0-0.65,0.354-0.945,0.945-0.945h6.142c0.649,0,0.944,0.295,0.944,0.945v4.547
				c0,1.594,0.886,2.361,2.362,2.361h2.834c1.536,0,2.362-0.768,2.362-2.361v-7.854l-13.995-4.605
				c-1.062-0.354-1.595-1.063-1.595-2.186V207.28c0-5.551,3.012-8.504,8.504-8.504H812.306z"/>
		</g>
		<g>
			<path fill="#4E4E4E" d="M912.985,198.776c0.649,0,0.945,0.354,0.945,0.945v5.905c0,0.59-0.296,0.944-0.945,0.944h-6.85v38.502
				c0,0.649-0.296,0.944-0.945,0.944h-6.142c-0.59,0-0.944-0.295-0.944-0.944v-38.502h-6.85c-0.591,0-0.945-0.354-0.945-0.944
				v-5.905c0-0.591,0.354-0.945,0.945-0.945H912.985z"/>
		</g>
		<g>
			<path fill="#4E4E4E" d="M66.908,292.936c0.649,0,1.181,0.531,1.181,1.181v37.557c0,5.551-2.952,8.504-8.504,8.504h-6.613
				c-5.551,0-8.504-2.953-8.504-8.504v-37.557c0-0.649,0.532-1.181,1.182-1.181h5.669c0.649,0,1.181,0.531,1.181,1.181v35.904
				c0,1.594,0.827,2.361,2.362,2.361h3.07c1.535,0,2.362-0.768,2.362-2.361v-35.904c0-0.649,0.531-1.181,1.181-1.181H66.908z"/>
		</g>
		<g>
			<path fill="#4E4E4E" d="M162.978,292.936c0.886,0,1.239,0.473,1.062,1.3l-9.979,44.879c-0.178,0.708-0.591,1.062-1.3,1.062
				h-5.904c-0.709,0-1.122-0.354-1.3-1.062l-9.92-44.879c-0.178-0.827,0.177-1.3,1.062-1.3h5.61c0.708,0,1.121,0.354,1.299,1.063
				l6.2,31.65l6.26-31.65c0.177-0.709,0.59-1.063,1.299-1.063H162.978z"/>
		</g>
		<g>
			<path fill="#4E4E4E" d="M263.513,292.936c0.768,0,1.182,0.473,1.122,1.24l-5.078,44.879c-0.059,0.768-0.473,1.122-1.24,1.122
				h-5.787c-0.708,0-1.122-0.354-1.299-1.062l-6.142-26.691l-6.2,26.75c-0.178,0.649-0.591,1.004-1.299,1.004h-5.905
				c-0.768,0-1.182-0.354-1.24-1.122l-4.843-44.879c-0.059-0.768,0.354-1.24,1.122-1.24h5.61c0.709,0,1.181,0.413,1.24,1.122
				l2.303,27.637h0.295L242.019,294c0.177-0.709,0.59-1.063,1.299-1.063h3.543c0.709,0,1.122,0.354,1.3,1.063l5.786,27.695h0.296
				l2.421-27.637c0.059-0.709,0.531-1.122,1.24-1.122H263.513z"/>
		</g>
		<g>
			<path fill="#4E4E4E" d="M352.963,338.76c0.354,0.827,0.06,1.417-0.886,1.417h-6.082c-0.649,0-1.122-0.236-1.358-0.826
				l-5.669-14.291l-5.669,14.291c-0.235,0.59-0.708,0.826-1.357,0.826h-6.083c-0.944,0-1.239-0.59-0.886-1.417l9.33-22.676
				l-8.976-21.731c-0.354-0.826-0.059-1.417,0.886-1.417h5.905c0.649,0,1.122,0.236,1.358,0.827l5.491,13.994l5.492-13.994
				c0.236-0.591,0.709-0.827,1.358-0.827h5.905c0.944,0,1.239,0.591,0.886,1.417l-9.035,21.731L352.963,338.76z"/>
		</g>
		<g>
			<path fill="#4E4E4E" d="M447.716,292.936c0.886,0,1.299,0.531,0.945,1.358l-10.807,26.277v18.424
				c0,0.768-0.413,1.182-1.182,1.182h-5.669c-0.768,0-1.181-0.414-1.181-1.182v-18.424l-10.807-26.277
				c-0.354-0.827,0.06-1.358,0.945-1.358h5.905c0.708,0,1.122,0.296,1.357,0.944l6.614,16.948l6.613-16.948
				c0.236-0.648,0.65-0.944,1.358-0.944H447.716z"/>
		</g>
		<g>
			<path fill="#4E4E4E" d="M540.163,292.936c0.944,0,1.181,0.591,0.886,1.417l-14.704,38.029h12.991
				c0.591,0,0.945,0.295,0.945,0.945v5.846c0,0.59-0.354,0.945-0.945,1.004h-22.971c-0.944,0-1.24-0.59-0.886-1.417l14.704-37.97
				H517.96c-0.591,0-0.945-0.355-0.945-0.945v-5.905c0-0.649,0.354-0.944,0.945-1.004H540.163z"/>
		</g>
		<g>
			<path fill="#4E4E4E" d="M629.075,340.177c-0.531,0-0.826-0.295-0.944-0.826l-1.89-7.441H615.14l-1.831,7.441
				c-0.118,0.531-0.413,0.826-0.944,0.826h-5.787c-0.65,0-0.945-0.354-0.768-1.004l9.802-39.506c0.118-0.59,0.473-0.826,1.004-0.826
				h8.208c0.532,0,0.887,0.236,1.004,0.826l9.803,39.506c0.178,0.649-0.118,1.004-0.826,1.004H629.075z M616.97,325.06h7.44
				l-3.72-16.062L616.97,325.06z"/>
		</g>
		<g>
			<path fill="#4E4E4E" d="M725.839,315.316c0,2.186-1.594,3.839-3.72,4.193v0.118c2.126,0.354,3.72,2.008,3.72,4.192v7.854
				c0,5.551-3.011,8.504-8.562,8.504h-14.172c-0.591,0-0.945-0.354-0.945-0.945v-39.445c0-0.65,0.354-0.945,0.945-0.945h14.172
				c5.552,0,8.562,2.953,8.562,8.504V315.316z M715.978,315.671c1.535,0,2.362-0.827,2.362-2.304v-4.724
				c0-1.535-0.768-2.362-2.362-2.362h-6.495v9.39H715.978z M715.978,332.737c1.535,0,2.362-0.768,2.362-2.362v-4.547
				c0-1.535-0.768-2.361-2.362-2.361h-6.495v9.271H715.978z"/>
		</g>
		<g>
			<path fill="#4E4E4E" d="M820.839,313.722c0,0.59-0.354,0.945-0.944,0.945h-5.551c-0.649,0-0.945-0.355-0.945-0.945v-4.842
				c0-1.535-0.826-2.362-2.361-2.362h-3.779c-1.595,0-2.362,0.827-2.362,2.362v21.436c0,1.594,0.826,2.361,2.362,2.361h3.779
				c1.535,0,2.361-0.768,2.361-2.361v-5.02c0-0.591,0.296-0.945,0.945-0.945h5.551c0.591,0,0.944,0.354,0.944,0.945v6.377
				c0,5.551-3.011,8.504-8.503,8.504h-6.614c-5.551,0-8.562-2.953-8.562-8.504v-24.328c0-5.551,3.012-8.504,8.562-8.504h6.614
				c5.492,0,8.503,2.953,8.503,8.504V313.722z"/>
		</g>
		<g>
			<path fill="#4E4E4E" d="M890.309,299.787c0-0.592,0.296-0.945,0.945-0.945h14.172c5.552,0,8.504,3.012,8.504,8.562v24.27
				c0,5.551-2.952,8.504-8.504,8.504h-14.172c-0.649,0-0.945-0.295-0.945-0.945V299.787z M903.772,332.382
				c1.535,0,2.362-0.768,2.362-2.361v-20.964c0-1.595-0.827-2.421-2.362-2.421h-5.433v25.746H903.772z"/>
		</g>
		<g>
			<path fill="#4E4E4E" d="M68.06,398.811c0,0.591-0.235,1.004-0.944,1.004H52.529v9.095h11.102c0.591,0,0.945,0.354,0.945,1.004
				v5.846c0,0.649-0.354,1.004-0.945,1.004H52.529v8.739h14.586c0.709,0,0.944,0.296,0.944,0.944v5.906
				c0,0.59-0.235,0.944-0.944,0.944H45.384c-0.531,0-0.886-0.354-0.886-0.944v-39.447c0-0.59,0.354-0.944,0.886-0.944h21.731
				c0.709,0,0.944,0.354,0.944,0.944V398.811z"/>
		</g>
		<g>
			<path fill="#4E4E4E" d="M161.649,398.811c0,0.591-0.354,0.945-0.945,0.945h-14.645v10.098h11.102
				c0.591,0,0.945,0.354,0.945,0.944v5.906c0,0.648-0.354,0.944-0.945,0.944h-11.102v14.704c0,0.59-0.354,0.944-0.944,0.944h-6.142
				c-0.649,0-0.945-0.354-0.945-0.944v-39.447c0-0.59,0.296-0.944,0.945-0.944h21.73c0.591,0,0.945,0.354,0.945,0.944V398.811z"/>
		</g>
		<g>
			<path fill="#4E4E4E" d="M233.308,400.464c0-5.551,2.953-8.503,8.504-8.503h6.613c5.492,0,8.504,2.952,8.504,8.503v4.37
				c0,0.591-0.354,0.944-0.945,0.944h-5.551c-0.649,0-0.944-0.354-0.944-0.944v-2.894c0-1.535-0.827-2.361-2.362-2.361h-3.779
				c-1.595,0-2.362,0.826-2.362,2.361v21.377c0,1.594,0.827,2.361,2.362,2.361h3.779c1.535,0,2.362-0.768,2.362-2.361v-5.138h-3.07
				c-0.65,0-0.945-0.354-0.945-0.944v-5.906c0-0.648,0.295-0.944,0.945-0.944h9.565c0.591,0,0.945,0.296,0.945,0.944v13.465
				c0,5.551-3.012,8.503-8.504,8.503h-6.613c-5.551,0-8.504-2.952-8.504-8.503V400.464z"/>
		</g>
		<g>
			<path fill="#4E4E4E" d="M343.337,392.906c0-0.59,0.354-0.944,0.945-0.944h6.082c0.709,0,1.004,0.354,1.004,0.944v39.447
				c0,0.59-0.295,0.944-1.004,0.944h-6.082c-0.591,0-0.945-0.354-0.945-0.944v-15.708h-7.559v15.708c0,0.59-0.354,0.944-0.944,0.944
				h-6.083c-0.708,0-1.004-0.354-1.004-0.944v-39.447c0-0.59,0.296-0.944,1.004-0.944h6.083c0.59,0,0.944,0.354,0.944,0.944v15.944
				h7.559V392.906z"/>
		</g>
		<g>
			<path fill="#4E4E4E" d="M430.769,433.297c-0.649,0-0.945-0.354-0.945-0.944v-39.447c0-0.59,0.296-0.944,0.945-0.944h6.142
				c0.59,0,0.944,0.354,0.944,0.944v39.447c0,0.59-0.354,0.944-0.944,0.944H430.769z"/>
		</g>
		<g>
			<path fill="#4E4E4E" d="M532.338,392.906c0-0.59,0.296-0.944,0.945-0.944h6.141c0.591,0,0.945,0.354,0.945,0.944v31.889
				c0,5.551-3.012,8.503-8.504,8.503h-6.613c-5.551,0-8.504-2.952-8.504-8.503v-6.142c0-0.591,0.296-0.945,0.945-0.945h5.905
				c0.59,0,0.944,0.354,0.944,0.945v4.487c0,1.535,0.827,2.362,2.362,2.362h3.07c1.536,0,2.362-0.827,2.362-2.362V392.906z"/>
		</g>
		<g>
			<path fill="#4E4E4E" d="M626.86,433.297c-0.708,0-1.062-0.296-1.357-0.886l-7.44-14.586l-2.186,4.193v10.098
				c0,0.768-0.413,1.181-1.181,1.181h-5.669c-0.768,0-1.182-0.413-1.182-1.181v-38.975c0-0.768,0.414-1.181,1.182-1.181h5.669
				c0.768,0,1.181,0.413,1.181,1.181v15.354l9.094-15.648c0.296-0.531,0.709-0.886,1.358-0.886h6.2c0.886,0,1.3,0.649,0.827,1.417
				l-10.039,17.656l10.688,20.904c0.413,0.768,0.06,1.358-0.886,1.358H626.86z"/>
		</g>
		<g>
			<path fill="#4E4E4E" d="M711.696,425.503h11.692c0.649,0,0.945,0.354,0.945,0.944v5.906c0,0.648-0.296,0.944-0.945,0.944H704.61
				c-0.591,0-0.945-0.296-0.945-0.944v-39.447c0-0.59,0.354-0.944,0.945-0.944h6.142c0.649,0,0.944,0.354,0.944,0.944V425.503z"/>
		</g>
		<g>
			<path fill="#4E4E4E" d="M824.647,391.961c0.768,0,1.182,0.413,1.182,1.181v38.975c0,0.768-0.414,1.181-1.182,1.181h-5.491
				c-0.768,0-1.182-0.413-1.182-1.181V408.91h-0.413l-5.551,23.384c-0.177,0.649-0.591,1.004-1.299,1.004h-3.484
				c-0.709,0-1.122-0.354-1.299-1.004l-5.551-23.384h-0.414v23.207c0,0.768-0.413,1.181-1.181,1.181h-5.433
				c-0.768,0-1.182-0.413-1.182-1.181v-38.975c0-0.768,0.414-1.181,1.182-1.181h7.795c0.708,0,1.122,0.354,1.299,1.004l6.555,26.337
				l6.555-26.337c0.177-0.649,0.591-1.004,1.299-1.004H824.647z"/>
		</g>
		<g>
			<path fill="#4E4E4E" d="M913.782,391.961c0.591,0,0.945,0.354,0.945,0.944v39.447c0,0.59-0.354,0.944-0.945,0.944h-4.665
				c-0.531,0-0.827-0.236-1.062-0.768l-11.103-22.558v22.381c0,0.59-0.295,0.944-0.944,0.944h-5.551
				c-0.591,0-0.945-0.354-0.945-0.944v-39.447c0-0.59,0.354-0.944,0.945-0.944h4.665c0.531,0,0.827,0.236,1.062,0.768l11.103,22.558
				v-22.381c0-0.59,0.295-0.944,0.944-0.944H913.782z"/>
		</g>
		<g>
			<path fill="#4E4E4E" d="M44.468,493.185c0-5.551,2.953-8.504,8.504-8.504h6.613c5.552,0,8.504,2.953,8.504,8.504v24.329
				c0,5.551-2.952,8.503-8.504,8.503h-6.613c-5.551,0-8.504-2.952-8.504-8.503V493.185z M58.286,518.4
				c1.535,0,2.362-0.768,2.362-2.362v-21.377c0-1.535-0.827-2.361-2.362-2.361h-3.779c-1.535,0-2.362,0.826-2.362,2.361v21.377
				c0,1.595,0.827,2.362,2.362,2.362H58.286z"/>
		</g>
		<g>
			<path fill="#4E4E4E" d="M138.028,485.627c0-0.591,0.354-0.945,0.945-0.945h14.172c5.552,0,8.504,2.953,8.504,8.504v11.573
				c0,5.492-2.952,8.445-8.504,8.562h-7.44v11.811c0,0.591-0.295,0.945-0.944,0.886h-5.787c-0.591,0-0.945-0.354-0.945-0.944
				V485.627z M151.61,505.645c1.595,0,2.362-0.887,2.362-2.362v-8.622c0-1.535-0.768-2.361-2.362-2.303h-5.905v13.287H151.61z"/>
		</g>
		<g>
			<path fill="#4E4E4E" d="M256.929,517.514c0,3.72-1.299,6.259-3.839,7.559l2.362,5.078c0.296,0.649-0.177,1.062-0.826,1.062
				h-6.142c-0.591,0-0.768-0.354-1.004-0.826l-2.008-4.37h-3.661c-5.551,0-8.504-2.952-8.504-8.503v-24.329
				c0-5.551,2.953-8.504,8.504-8.504h6.613c5.552,0,8.504,2.953,8.504,8.504V517.514z M240.984,516.038
				c0,1.595,0.827,2.362,2.362,2.362h3.779c1.535,0,2.362-0.768,2.362-2.362v-21.377c0-1.535-0.827-2.361-2.362-2.361h-3.779
				c-1.535,0-2.362,0.826-2.362,2.361V516.038z"/>
		</g>
		<g>
			<path fill="#4E4E4E" d="M351.369,505.054c0,3.425-1.122,5.846-3.307,7.204l3.07,12.696c0.177,0.708-0.177,1.062-0.827,1.062
				h-5.786c-0.591,0-0.886-0.295-1.004-0.826l-2.835-11.634h-5.256v11.516c0,0.59-0.354,0.944-0.944,0.944h-5.787
				c-0.591,0-0.945-0.354-0.945-0.944v-39.446c0-0.591,0.354-0.945,0.945-0.945h14.172c5.552,0,8.504,2.953,8.504,8.504V505.054z
				 M335.424,505.94h5.905c1.535,0,2.362-0.827,2.362-2.362v-8.917c0-1.535-0.827-2.361-2.362-2.361h-5.905V505.94z"/>
		</g>
		<g>
			<path fill="#4E4E4E" d="M437.145,484.681c5.552,0,8.504,2.953,8.504,8.504v3.897c0,0.59-0.295,0.944-0.945,0.944h-5.964
				c-0.591,0-0.944-0.354-0.944-0.944v-2.48c0-1.535-0.769-2.362-2.362-2.362h-3.248c-1.477,0-2.362,0.827-2.362,2.362v5.02
				l14.291,4.605c1.004,0.354,1.535,1.063,1.535,2.186v11.102c0,5.551-2.952,8.503-8.504,8.503h-6.613
				c-5.492,0-8.504-2.952-8.504-8.503v-3.839c0-0.649,0.354-0.944,0.945-0.944h5.964c0.649,0,0.945,0.295,0.945,0.944v2.48
				c0,1.595,0.886,2.362,2.362,2.362h3.188c1.535,0,2.362-0.768,2.362-2.362v-5.964l-14.173-4.606
				c-1.062-0.354-1.595-1.062-1.595-2.185v-10.216c0-5.551,3.012-8.504,8.504-8.504H437.145z"/>
		</g>
		<g>
			<path fill="#4E4E4E" d="M539.425,484.681c0.649,0,0.945,0.354,0.945,0.945v5.904c0,0.591-0.296,0.945-0.945,0.945h-6.85v32.597
				c0,0.649-0.296,0.944-0.945,0.944h-6.142c-0.59,0-0.944-0.295-0.944-0.944v-32.597h-6.85c-0.591,0-0.945-0.354-0.945-0.945
				v-5.904c0-0.591,0.354-0.945,0.945-0.945H539.425z"/>
		</g>
		<g>
			<path fill="#4E4E4E" d="M631.349,484.681c0.649,0,1.181,0.531,1.181,1.181v31.652c0,5.551-2.952,8.503-8.504,8.503h-6.613
				c-5.551,0-8.504-2.952-8.504-8.503v-31.652c0-0.649,0.532-1.181,1.182-1.181h5.669c0.649,0,1.181,0.531,1.181,1.181v29.999
				c0,1.594,0.827,2.361,2.362,2.361h3.07c1.535,0,2.362-0.768,2.362-2.361v-29.999c0-0.649,0.531-1.181,1.181-1.181H631.349z"/>
		</g>
		<g>
			<path fill="#4E4E4E" d="M726.548,484.681c0.886,0,1.24,0.473,1.063,1.299l-9.39,38.975c-0.177,0.708-0.591,1.062-1.299,1.062
				h-5.905c-0.709,0-1.122-0.354-1.299-1.062l-9.33-38.975c-0.178-0.826,0.177-1.299,1.062-1.299h5.374
				c0.708,0,1.122,0.354,1.299,1.063l5.846,26.69l5.905-26.69c0.178-0.709,0.591-1.063,1.3-1.063H726.548z"/>
		</g>
		<g>
			<path fill="#4E4E4E" d="M828.28,484.681c0.826,0,1.24,0.473,1.122,1.24l-5.669,39.033c-0.118,0.708-0.532,1.062-1.3,1.062h-6.377
				c-0.709,0-1.122-0.354-1.3-1.062l-5.433-24.211l-5.491,24.211c-0.178,0.708-0.591,1.062-1.3,1.062h-6.495
				c-0.768,0-1.181-0.354-1.299-1.122l-5.434-38.974c-0.118-0.768,0.296-1.24,1.122-1.24h5.551c0.709,0,1.122,0.354,1.24,1.122
				l2.894,24.684h0.296l5.787-24.802c0.177-0.649,0.59-1.004,1.299-1.004h3.602c0.709,0,1.122,0.354,1.3,1.004l5.787,24.802h0.295
				l3.012-24.684c0.118-0.768,0.473-1.122,1.24-1.122H828.28z"/>
		</g>
		<g>
			<path fill="#4E4E4E" d="M916.41,524.6c0.413,0.827,0.06,1.417-0.886,1.417h-6.082c-0.649,0-1.063-0.236-1.358-0.826l-6.26-12.814
				l-6.259,12.814c-0.296,0.59-0.709,0.826-1.358,0.826h-6.083c-0.944,0-1.299-0.59-0.886-1.417l9.98-19.724l-9.39-18.778
				c-0.413-0.768-0.059-1.417,0.886-1.417h6.082c0.65,0,1.063,0.236,1.358,0.827l5.669,11.928l5.669-11.928
				c0.296-0.591,0.709-0.827,1.358-0.827h6.082c0.945,0,1.3,0.649,0.886,1.417l-9.33,18.778L916.41,524.6z"/>
		</g>
		<g>
			<path fill="#4E4E4E" d="M70.156,581.002c0.886,0,1.3,0.59,0.945,1.357l-10.807,24.507v14.29c0,0.768-0.413,1.182-1.181,1.182
				h-5.669c-0.768,0-1.182-0.414-1.182-1.182v-14.29l-10.806-24.507c-0.354-0.768,0.059-1.357,0.944-1.357h5.905
				c0.709,0,1.122,0.354,1.358,0.945l6.613,15.176l6.614-15.176c0.236-0.592,0.649-0.945,1.358-0.945H70.156z"/>
		</g>
		<g>
			<path fill="#4E4E4E" d="M162.063,581.002c0.945,0,1.299,0.59,0.886,1.417l-15.058,32.655h12.932c0.591,0,0.945,0.295,0.945,0.945
				v5.314c0,0.59-0.354,0.945-0.945,1.004h-23.147c-0.945,0-1.3-0.59-0.887-1.417l15.059-32.124h-12.165
				c-0.59,0-0.944-0.354-0.944-0.945v-5.846c0-0.65,0.354-0.945,0.944-1.004H162.063z"/>
		</g>
		<g>
			<path fill="#4E4E4E" d="M250.346,575.096c0.59,0,0.944,0.354,0.944,0.944v45.352c0,0.591-0.354,0.945-0.944,0.945h-6.142
				c-0.649,0-0.945-0.354-0.945-0.945v-37.32l-3.661,0.473c-0.768,0.118-1.24-0.295-1.24-1.062v-5.67
				c0-0.768,0.354-1.181,1.122-1.24L250.346,575.096z"/>
		</g>
		<g>
			<path fill="#4E4E4E" d="M336.606,606.806c-0.591,0.355-0.827,0.769-0.827,1.418v5.138c0,0.768,0.413,1.181,1.182,1.181h6.377
				v-2.421c0-0.768,0.413-1.181,1.182-1.181h5.669c0.768,0,1.181,0.413,1.181,1.181v9.034c0,0.768-0.413,1.182-1.181,1.182h-21.259
				c-0.768,0-1.182-0.414-1.182-1.182v-17.42c0-1.121,0.414-1.594,1.536-2.185l14.054-7.559v-8.739c0-1.535-0.886-2.362-2.362-2.362
				h-2.834c-1.595,0-2.362,0.827-2.362,2.362v4.605c0,0.591-0.354,0.945-0.944,0.945h-6.142c-0.649,0-0.945-0.354-0.945-0.945v-6.26
				c0-5.551,2.953-8.503,8.504-8.503h6.613c5.492,0,8.504,2.952,8.504,8.503v13.937c0,1.122-0.473,1.595-1.595,2.185
				L336.606,606.806z"/>
		</g>
		<g>
			<path fill="#4E4E4E" d="M445.678,594.465c0,2.185-1.594,3.838-3.72,4.192v0.118c2.126,0.354,3.72,2.008,3.72,4.192v10.865
				c0,5.551-3.011,8.504-8.562,8.504h-6.85c-5.374,0-8.268-2.894-8.268-8.268v-1.948c0-0.768,0.414-1.181,1.182-1.181h5.669
				c0.768,0,1.181,0.413,1.181,1.181v2.421h6.614c0.768,0,1.181-0.413,1.181-1.181v-8.386c0-1.535-0.768-2.361-2.362-2.361h-6.968
				c-0.768,0-1.181-0.414-1.181-1.182v-5.433c0-0.768,0.413-1.181,1.181-1.181h6.968c1.535,0,2.362-0.827,2.362-2.303v-8.445
				c0-0.768-0.413-1.181-1.181-1.181h-6.614v2.421c0,0.768-0.413,1.182-1.181,1.182h-5.669c-0.768,0-1.182-0.414-1.182-1.182v-2.421
				c0-5.079,2.894-7.795,8.268-7.795h6.85c5.552,0,8.562,2.952,8.562,8.503V594.465z"/>
		</g>
		<g>
			<path fill="#4E4E4E" d="M539.572,600.961h2.421c0.768,0,1.181,0.414,1.181,1.182v5.078c0,0.768-0.413,1.182-1.181,1.182h-2.421
				v12.754c0,0.768-0.413,1.182-1.181,1.182h-5.138c-0.768,0-1.182-0.414-1.182-1.182v-12.873h-16.947
				c-0.768,0-1.182-0.413-1.182-1.181v-5.255c0-0.532,0.118-0.945,0.414-1.418l15.176-24.565c0.296-0.531,0.768-0.768,1.417-0.768
				h6.201c0.944,0,1.299,0.591,0.768,1.417l-14.822,24.565h8.976v-7.086c0-0.768,0.414-1.181,1.182-1.181h5.138
				c0.768,0,1.181,0.413,1.181,1.181V600.961z"/>
		</g>
		<g>
			<path fill="#4E4E4E" d="M630.758,575.096c0.768,0,1.181,0.413,1.181,1.181v5.434c0,0.768-0.413,1.181-1.181,1.181h-13.287v9.271
				l14.055,4.43c0.709,0.236,1.004,0.649,1.004,1.299v16.18c0,5.374-2.894,8.268-8.268,8.268h-7.086
				c-5.374,0-8.268-2.894-8.268-8.268v-1.889c0-0.768,0.414-1.182,1.182-1.182h5.669c0.768,0,1.181,0.414,1.181,1.182v2.361h6.437
				c0.768,0,1.182-0.413,1.182-1.181v-10.807l-14.055-4.429c-0.709-0.236-1.004-0.65-1.004-1.299v-20.551
				c0-0.768,0.413-1.181,1.182-1.181H630.758z"/>
		</g>
		<g>
			<path fill="#4E4E4E" d="M712.405,593.343h5.137c5.374,0,8.268,2.894,8.268,8.268v12.459c0,5.374-2.894,8.268-8.268,8.268h-7.086
				c-5.374,0-8.268-2.894-8.268-8.268v-15.176c0-1.122,0.178-1.89,0.591-2.953l8.386-19.959c0.236-0.59,0.649-0.886,1.357-0.886
				h6.142c0.886,0,1.24,0.531,0.886,1.358L712.405,593.343z M715.652,614.543c1.535,0,2.362-0.826,2.362-2.361V603.5
				c0-1.535-0.827-2.361-2.362-2.361h-3.307c-1.535,0-2.362,0.826-2.362,2.361v8.682c0,1.535,0.827,2.361,2.362,2.361H715.652z"/>
		</g>
		<g>
			<path fill="#4E4E4E" d="M821.666,575.096c0.945,0,1.182,0.591,0.886,1.417l-17.243,44.82c-0.236,0.649-0.649,0.945-1.357,1.004
				h-6.142c-0.886,0-1.24-0.531-0.945-1.358l14.586-38.028h-13.995c-0.591,0-0.945-0.355-0.945-0.945V576.1
				c0-0.649,0.354-0.944,0.945-1.004H821.666z"/>
		</g>
		<g>
			<path fill="#4E4E4E" d="M913.959,594.465c0,2.185-1.594,3.838-3.72,4.192v0.118c2.126,0.354,3.72,2.008,3.72,4.192v10.865
				c0,5.551-3.011,8.504-8.562,8.504h-6.555c-5.551,0-8.562-2.953-8.562-8.504v-10.865c0-2.185,1.595-3.838,3.721-4.192v-0.118
				c-2.126-0.354-3.721-2.008-3.721-4.192v-10.866c0-5.551,3.012-8.503,8.562-8.503h6.555c5.552,0,8.562,2.952,8.562,8.503V594.465z
				 M903.743,594.82c1.535,0,2.362-0.827,2.362-2.303v-7.264c0-1.535-0.768-2.362-2.362-2.362h-3.247
				c-1.595,0-2.362,0.827-2.362,2.362v7.264c0,1.476,0.826,2.303,2.362,2.303H903.743z M903.743,614.543
				c1.535,0,2.362-0.768,2.362-2.361v-7.205c0-1.535-0.768-2.361-2.362-2.361h-3.247c-1.595,0-2.362,0.826-2.362,2.361v7.205
				c0,1.594,0.826,2.361,2.362,2.361H903.743z"/>
		</g>
		<g>
			<path fill="#4E4E4E" d="M57.873,697.81h-5.138c-5.374,0-8.268-2.894-8.268-8.267v-12.46c0-5.374,2.894-8.268,8.268-8.268h7.086
				c5.374,0,8.268,2.894,8.268,8.268v15.176c0,1.122-0.177,1.89-0.591,2.953l-8.385,19.959c-0.236,0.591-0.649,0.886-1.358,0.886
				h-6.142c-0.886,0-1.24-0.531-0.886-1.358L57.873,697.81z M54.625,676.611c-1.535,0-2.362,0.827-2.362,2.362v8.681
				c0,1.535,0.827,2.362,2.362,2.362h3.307c1.535,0,2.362-0.827,2.362-2.362v-8.681c0-1.535-0.827-2.362-2.362-2.362H54.625z"/>
		</g>
		<g>
			<path fill="#4E4E4E" d="M138.028,677.32c0-5.551,2.953-8.504,8.504-8.504h6.613c5.552,0,8.504,2.953,8.504,8.504v30.234
				c0,5.551-2.952,8.503-8.504,8.503h-6.613c-5.551,0-8.504-2.952-8.504-8.503V677.32z M151.669,708.44
				c1.535,0,2.361-0.768,2.361-2.362v-27.282c0-1.535-0.826-2.361-2.361-2.361h-3.425c-1.536,0-2.362,0.826-2.362,2.361v27.282
				c0,1.595,0.826,2.362,2.362,2.362H151.669z"/>
		</g>
		<g>
			<path fill="#4E4E4E" d="M248.19,668.816c0.59,0,0.944,0.354,0.944,0.945l-0.413,32.183c0,0.591-0.354,0.945-0.945,0.945h-5.609
				c-0.649,0-0.945-0.354-0.945-0.945l-0.413-32.183c0-0.591,0.295-0.945,0.945-0.945H248.19z M241.104,709.444
				c0-0.768,0.414-1.182,1.182-1.182h5.373c0.769,0,1.182,0.414,1.182,1.182v5.433c0,0.768-0.413,1.181-1.182,1.181h-5.373
				c-0.768,0-1.182-0.413-1.182-1.181V709.444z"/>
		</g>
		<g>
			<path fill="#4E4E4E" d="M349.952,668.816c5.551,0,8.503,2.953,8.503,8.504v26.632c0,0.591-0.354,0.945-0.944,0.945h-5.905
				c-0.649,0-0.944-0.354-0.944-0.945v-0.886l-10.688,1.771c-5.551,0.236-8.504-2.952-8.504-8.503v-8.031
				c0-5.551,2.953-9.212,8.504-8.562l10.688,1.713v-2.48c0-1.595-0.827-2.362-2.362-2.362h-17.479c-1.535,0-2.362,0.827-2.362,2.421
				v26.869c0,1.594,0.827,2.361,2.362,2.361h12.283c0.768,0,1.181,0.414,1.181,1.182v4.842c0,0.768-0.413,1.182-1.181,1.24
				l-13.937,0.531c-5.551,0.236-8.504-2.952-8.504-8.503v-30.176c0-5.551,2.953-8.562,8.504-8.562H349.952z M338.672,694.681
				c0,1.594,0.827,2.361,2.362,2.361l9.626-1.299v-6.909l-9.626-1.299c-1.535,0-2.362,0.826-2.362,2.421V694.681z"/>
		</g>
		<g>
			<path fill="#4E4E4E" d="M457.459,681.394c0.886,0,1.299,0.531,0.944,1.358l-1.476,4.074c-0.236,0.649-0.649,0.945-1.358,0.945
				h-8.09l-3.308,8.739h8.917c0.886,0,1.299,0.531,0.945,1.358l-1.477,4.074c-0.236,0.649-0.649,0.945-1.358,0.945h-9.448
				l-4.665,12.224c-0.236,0.649-0.649,0.944-1.358,1.004h-5.551c-0.886,0-1.24-0.532-0.944-1.358l4.547-11.869h-8.031l-4.665,12.224
				c-0.236,0.649-0.649,0.944-1.358,1.004h-5.551c-0.886,0-1.24-0.532-0.944-1.358l4.547-11.869h-7.559
				c-0.886,0-1.299-0.532-0.945-1.358l1.477-4.074c0.236-0.65,0.649-0.945,1.358-0.945h8.09l3.366-8.739h-8.976
				c-0.886,0-1.3-0.532-0.945-1.358l1.477-4.074c0.236-0.65,0.649-0.945,1.358-0.945h9.507l4.429-11.633
				c0.236-0.649,0.649-0.945,1.358-0.945h5.492c0.886,0,1.239,0.531,0.944,1.358l-4.252,11.22h8.031l4.429-11.633
				c0.236-0.649,0.649-0.945,1.358-0.945h5.492c0.886,0,1.239,0.531,0.944,1.358l-4.252,11.22H457.459z M439.567,687.772h-8.09
				l-3.308,8.739h8.031L439.567,687.772z"/>
		</g>
		<g>
			<path fill="#4E4E4E" d="M516.748,677.32c0-5.551,2.953-8.504,8.504-8.504h6.613c5.492,0,8.504,2.953,8.504,8.504v11.633
				c0,0.649-0.177,1.063-0.649,1.477l-7.5,7.204c-0.413,0.413-0.59,0.827-0.59,1.477v2.598c0,0.768-0.414,1.182-1.182,1.182h-5.551
				c-0.768,0-1.181-0.414-1.181-1.182v-5.196c0-0.591,0.177-1.004,0.59-1.417l8.031-7.972v-8.149c0-1.535-0.886-2.362-2.362-2.362
				h-2.834c-1.595,0-2.362,0.827-2.362,2.362v4.605c0,0.591-0.354,0.945-0.944,0.945h-6.142c-0.649,0-0.945-0.354-0.945-0.945
				V677.32z M523.717,709.444c0-0.768,0.413-1.182,1.181-1.182h5.551c0.768,0,1.182,0.414,1.182,1.182v5.433
				c0,0.768-0.414,1.181-1.182,1.181h-5.551c-0.768,0-1.181-0.413-1.181-1.181V709.444z"/>
		</g>
		<g>
			<path fill="#4E4E4E" d="M618.387,681.925c0,5.079-4.134,9.212-9.212,9.212c-5.256,0-9.389-4.133-9.389-9.212
				c0-5.196,4.133-9.448,9.389-9.448C614.253,672.477,618.387,676.729,618.387,681.925z M637.696,672.713
				c0.886,0,1.477,0.531,0.945,1.358l-27.164,41.041c-0.413,0.649-0.649,0.944-1.357,0.944h-5.552c-0.886,0-1.476-0.531-0.944-1.358
				l27.223-41.04c0.413-0.649,0.649-0.945,1.358-0.945H637.696z M605.868,681.925c0,1.713,1.477,3.189,3.307,3.189
				c1.653,0,3.188-1.477,3.188-3.189c0-1.83-1.535-3.307-3.188-3.307C607.345,678.619,605.868,680.095,605.868,681.925z
				 M641.653,707.731c0,5.078-4.134,9.212-9.212,9.212c-5.256,0-9.39-4.134-9.39-9.212c0-5.196,4.134-9.448,9.39-9.448
				C637.52,698.283,641.653,702.535,641.653,707.731z M629.134,707.731c0,1.713,1.477,3.188,3.308,3.188
				c1.653,0,3.188-1.476,3.188-3.188c0-1.83-1.535-3.307-3.188-3.307C630.61,704.424,629.134,705.901,629.134,707.731z"/>
		</g>
		<g>
			<path fill="#4E4E4E" d="M721.58,668.816c0.768,0,1.182,0.414,1.182,1.182v5.433c0,0.768-0.414,1.181-1.182,1.181h-9.034
				c-1.595,0-2.362,0.827-2.362,2.362v6.673c0,1.477,0.826,2.303,2.362,2.303h5.491v-2.362c0-0.768,0.413-1.181,1.182-1.181h5.609
				c0.768,0,1.181,0.413,1.181,1.181v2.362h2.48c0.768,0,1.181,0.413,1.181,1.181v5.434c0,0.768-0.413,1.181-1.181,1.181h-2.48
				v19.133c0,0.768-0.413,1.181-1.181,1.181h-13.937c-5.551,0-8.562-2.952-8.562-8.503v-11.456c0-2.186,1.595-3.839,3.721-4.192
				v-0.118c-2.126-0.354-3.721-2.008-3.721-4.193V677.32c0-5.551,3.012-8.504,8.562-8.504H721.58z M718.037,695.744h-5.491
				c-1.595,0-2.362,0.827-2.362,2.362v7.795c0,1.594,0.826,2.361,2.362,2.361h5.491V695.744z"/>
		</g>
		<g>
			<path fill="#4E4E4E" d="M814.02,668.816c0.886,0,1.239,0.531,0.944,1.358c-6.142,15.767-6.142,33.364,0,49.131
				c0.295,0.827-0.059,1.358-0.944,1.358h-4.961c-0.708,0-1.122-0.296-1.358-0.945c-6.377-16.062-6.377-33.896,0-49.957
				c0.236-0.649,0.65-0.945,1.358-0.945H814.02z"/>
		</g>
		<g>
			<path fill="#4E4E4E" d="M897.101,720.664c-0.886,0-1.24-0.531-0.945-1.358c6.142-15.767,6.142-33.364,0-49.131
				c-0.295-0.827,0.06-1.358,0.945-1.358h4.96c0.709,0,1.122,0.296,1.358,0.945c6.378,16.062,6.378,33.896,0,49.957
				c-0.236,0.649-0.649,0.945-1.358,0.945H897.101z"/>
		</g>
		<g>
			<path fill="#4E4E4E" d="M50.433,785.363c0-0.768,0.414-1.182,1.182-1.182h9.33c0.768,0,1.181,0.414,1.181,1.182v5.433
				c0,0.768-0.413,1.181-1.181,1.181h-9.33c-0.768,0-1.182-0.413-1.182-1.181V785.363z"/>
		</g>
		<g>
			<path fill="#4E4E4E" d="M137.231,785.363c0-0.768,0.414-1.182,1.182-1.182h22.853c0.768,0,1.182,0.414,1.182,1.182v5.433
				c0,0.768-0.414,1.181-1.182,1.181h-22.853c-0.768,0-1.182-0.413-1.182-1.181V785.363z"/>
		</g>
		<g>
			<path fill="#4E4E4E" d="M226.133,785.363c0-0.768,0.414-1.182,1.182-1.182h35.607c0.769,0,1.182,0.414,1.182,1.182v5.433
				c0,0.768-0.413,1.181-1.182,1.181h-35.607c-0.768,0-1.182-0.413-1.182-1.181V785.363z"/>
		</g>
		<g>
			<path fill="#4E4E4E" d="M320.574,811.818c0-0.768,0.413-1.182,1.181-1.182h35.608c0.768,0,1.181,0.414,1.181,1.182v5.433
				c0,0.768-0.413,1.181-1.181,1.181h-35.608c-0.768,0-1.181-0.413-1.181-1.181V811.818z"/>
		</g>
		<g>
			<path fill="#4E4E4E" d="M446.004,762.096c0.886,0,1.24,0.531,0.944,1.358l-18.896,49.604c-0.236,0.648-0.649,0.944-1.357,0.944
				h-5.551c-0.887,0-1.24-0.531-0.945-1.358l18.955-49.604c0.236-0.648,0.65-0.944,1.358-0.944H446.004z"/>
		</g>
		<g>
			<path fill="#4E4E4E" d="M515.142,763.455c-0.296-0.827,0.059-1.358,0.944-1.358h5.492c0.708,0,1.122,0.296,1.358,0.944
				l18.955,49.604c0.295,0.827-0.059,1.358-0.944,1.358h-5.552c-0.708,0-1.121-0.296-1.357-0.944L515.142,763.455z"/>
		</g>
		<g>
			<path fill="#4E4E4E" d="M605.04,802.724c0-0.768,0.414-1.182,1.182-1.182h5.373c0.769,0,1.182,0.414,1.182,1.182v5.432
				c0,0.768-0.413,1.182-1.182,1.182h-5.373c-0.768,0-1.182-0.414-1.182-1.182V802.724z M616.851,802.724
				c0-0.768,0.413-1.182,1.182-1.182h5.373c0.768,0,1.182,0.414,1.182,1.182v5.432c0,0.768-0.414,1.182-1.182,1.182h-5.373
				c-0.769,0-1.182-0.414-1.182-1.182V802.724z M628.661,802.724c0-0.768,0.413-1.182,1.181-1.182h5.374
				c0.768,0,1.181,0.414,1.181,1.182v5.432c0,0.768-0.413,1.182-1.181,1.182h-5.374c-0.768,0-1.181-0.414-1.181-1.182V802.724z"/>
		</g>
		<g>
			<path fill="#4E4E4E" d="M711.571,802.724c0-0.768,0.414-1.182,1.182-1.182h5.373c0.769,0,1.182,0.414,1.182,1.182v5.787
				c0,0.59-0.118,1.004-0.413,1.476l-3.189,4.843c-0.177,0.295-0.354,0.413-0.708,0.413h-2.657c-0.473,0-0.65-0.296-0.473-0.709
				l2.362-5.196h-1.477c-0.768,0-1.182-0.414-1.182-1.182V802.724z"/>
		</g>
		<g>
			<path fill="#4E4E4E" d="M803.731,782.941c0-0.768,0.414-1.181,1.182-1.181h5.373c0.769,0,1.182,0.413,1.182,1.181v5.434
				c0,0.768-0.413,1.181-1.182,1.181h-5.373c-0.768,0-1.182-0.413-1.182-1.181V782.941z M803.731,802.724
				c0-0.768,0.414-1.182,1.182-1.182h5.373c0.769,0,1.182,0.414,1.182,1.182v5.787c0,0.59-0.118,1.004-0.413,1.476l-3.189,4.843
				c-0.177,0.295-0.354,0.413-0.708,0.413H804.5c-0.473,0-0.65-0.296-0.473-0.709l2.362-5.196h-1.477
				c-0.768,0-1.182-0.414-1.182-1.182V802.724z"/>
		</g>
		<g>
			<path fill="#4E4E4E" d="M897.012,783.001c0-0.768,0.414-1.181,1.182-1.181h5.373c0.769,0,1.182,0.413,1.182,1.181v5.433
				c0,0.768-0.413,1.182-1.182,1.182h-5.373c-0.768,0-1.182-0.414-1.182-1.182V783.001z M897.012,802.724
				c0-0.768,0.414-1.182,1.182-1.182h5.373c0.769,0,1.182,0.414,1.182,1.182v5.432c0,0.768-0.413,1.182-1.182,1.182h-5.373
				c-0.768,0-1.182-0.414-1.182-1.182V802.724z"/>
		</g>
		<g>
			<path fill="#4E4E4E" d="M55.789,869.615c0,0.768-0.413,1.182-1.182,1.182h-5.373c-0.768,0-1.182-0.414-1.182-1.182v-5.787
				c0-0.59,0.118-1.004,0.414-1.477l3.188-4.842c0.177-0.295,0.354-0.413,0.709-0.413h2.657c0.472,0,0.649,0.296,0.472,0.708
				l-2.361,5.197h1.476c0.769,0,1.182,0.413,1.182,1.181V869.615z M65.828,869.615c0,0.768-0.414,1.182-1.182,1.182h-5.374
				c-0.768,0-1.181-0.414-1.181-1.182v-5.787c0-0.59,0.118-1.004,0.413-1.477l3.189-4.842c0.177-0.295,0.354-0.413,0.708-0.413
				h2.657c0.473,0,0.65,0.296,0.473,0.708l-2.362,5.197h1.477c0.768,0,1.182,0.413,1.182,1.181V869.615z"/>
		</g>
		<g>
			<path fill="#4E4E4E" d="M140.936,858.277c0-0.768,0.414-1.181,1.182-1.181h5.373c0.769,0,1.182,0.413,1.182,1.181v5.787
				c0,0.591-0.118,1.004-0.413,1.477l-3.189,4.842c-0.177,0.296-0.354,0.414-0.708,0.414h-2.657c-0.473,0-0.65-0.295-0.473-0.709
				l2.362-5.196h-1.477c-0.768,0-1.182-0.413-1.182-1.181V858.277z M151.447,858.277c0-0.768,0.413-1.181,1.181-1.181h5.374
				c0.768,0,1.181,0.413,1.181,1.181v5.787c0,0.591-0.118,1.004-0.413,1.477l-3.188,4.842c-0.178,0.296-0.354,0.414-0.709,0.414
				h-2.657c-0.473,0-0.649-0.295-0.473-0.709l2.362-5.196h-1.477c-0.768,0-1.181-0.413-1.181-1.181V858.277z"/>
		</g>
		<g>
			<path fill="#4E4E4E" d="M246.308,869.615c0,0.768-0.413,1.182-1.182,1.182h-5.373c-0.768,0-1.182-0.414-1.182-1.182v-5.787
				c0-0.59,0.118-1.004,0.414-1.477l3.188-4.842c0.177-0.295,0.354-0.413,0.709-0.413h2.657c0.472,0,0.649,0.296,0.472,0.708
				l-2.361,5.197h1.476c0.769,0,1.182,0.413,1.182,1.181V869.615z"/>
		</g>
		<g>
			<path fill="#4E4E4E" d="M332.132,858.277c0-0.768,0.414-1.181,1.182-1.181h5.373c0.769,0,1.182,0.413,1.182,1.181v5.787
				c0,0.591-0.118,1.004-0.413,1.477l-3.189,4.842c-0.177,0.296-0.354,0.414-0.708,0.414H332.9c-0.473,0-0.65-0.295-0.473-0.709
				l2.362-5.196h-1.477c-0.768,0-1.182-0.413-1.182-1.181V858.277z"/>
		</g>
		<g>
			<path fill="#4E4E4E" d="M436.003,872.804c-0.591,0-0.945-0.354-0.945-0.945v-4.605c0-1.535-0.768-2.362-2.362-2.362h-2.834
				c-1.477,0-2.362,0.827-2.362,2.362v8.148l14.055,4.606c1.004,0.413,1.535,1.063,1.535,2.185v13.641
				c0,5.374-2.775,8.326-8.031,8.504v3.484c0,0.59-0.354,0.944-0.944,0.944h-5.729c-0.649,0-0.944-0.354-0.944-0.944v-3.484
				c-5.138-0.178-7.973-3.13-7.973-8.504v-6.199c0-0.65,0.354-0.945,0.945-0.945h6.142c0.649,0,0.944,0.295,0.944,0.945v4.547
				c0,1.594,0.886,2.361,2.362,2.361h2.834c1.536,0,2.362-0.768,2.362-2.361v-7.854l-13.995-4.606
				c-1.062-0.354-1.595-1.062-1.595-2.185v-13.937c0-5.373,2.835-8.326,7.973-8.503v-3.483c0-0.592,0.295-0.945,0.944-0.945h5.729
				c0.59,0,0.944,0.354,0.944,0.945v3.483c5.256,0.177,8.031,3.13,8.031,8.503v6.26c0,0.591-0.295,0.945-0.945,0.945H436.003z"/>
		</g>
		<g>
			<path fill="#4E4E4E" d="M526.398,864.891c-1.535,0-2.362,0.827-2.362,2.421v4.547h10.098c0.769,0,1.182,0.473,1.063,1.24
				l-0.709,4.311c-0.118,0.709-0.531,1.062-1.24,1.062h-9.212v4.488h7.736c0.768,0,1.181,0.473,1.062,1.24l-0.708,4.311
				c-0.118,0.709-0.532,1.063-1.24,1.063h-6.851v4.606c0,1.594,0.827,2.361,2.362,2.361h12.283c0.768,0,1.181,0.414,1.181,1.182
				v4.842c0,0.768-0.413,1.182-1.181,1.24l-13.937,0.531c-5.551,0.236-8.504-2.953-8.504-8.504v-6.259h-3.543
				c-0.826,0-1.24-0.473-1.122-1.24l0.709-4.311c0.118-0.709,0.531-1.063,1.24-1.063h2.716v-4.488h-2.361
				c-0.827,0-1.24-0.472-1.122-1.239l0.708-4.312c0.118-0.708,0.532-1.062,1.3-1.062h1.476v-6.2c0-5.551,2.953-8.799,8.504-8.562
				l13.937,0.531c0.768,0.06,1.181,0.473,1.181,1.24v4.843c0,0.768-0.413,1.181-1.181,1.181H526.398z"/>
		</g>
		<g>
			<path fill="#4E4E4E" d="M626.466,872.921c-0.649,0-0.944-0.354-0.944-0.944v-4.724c0-1.535-0.827-2.362-2.362-2.362h-3.07
				c-1.595,0-2.362,0.827-2.362,2.362v12.932h11.456c0.768,0,1.181,0.414,1.181,1.182v5.433c0,0.768-0.413,1.181-1.181,1.181
				h-11.456v8.562h14.408c0.769,0,1.182,0.414,1.182,1.182v5.432c0,0.768-0.413,1.182-1.182,1.182h-24.27
				c-0.768,0-1.182-0.414-1.182-1.182v-4.428c0-0.709,0.296-1.123,0.945-1.359l1.122-0.472c0.591-0.236,0.886-0.649,0.886-1.358
				v-7.559h-1.771c-0.768,0-1.182-0.413-1.182-1.181v-5.433c0-0.768,0.414-1.182,1.182-1.182h1.771v-14.586
				c0-5.551,3.012-8.503,8.562-8.503h6.613c5.492,0,8.504,2.952,8.504,8.503v6.378c0,0.591-0.354,0.944-0.945,0.944H626.466z"/>
		</g>
		<g>
			<path fill="#4E4E4E" d="M732.476,884.024c0,0.768-0.413,1.181-1.182,1.181h-32.832c-0.768,0-1.182-0.413-1.182-1.181v-5.552
				c0-0.768,0.414-1.18,1.182-1.18h32.832c0.769,0,1.182,0.412,1.182,1.18V884.024z M711.04,864.773
				c0-0.768,0.413-1.182,1.181-1.182h5.374c0.768,0,1.181,0.414,1.181,1.182v5.433c0,0.768-0.413,1.181-1.181,1.181h-5.374
				c-0.768,0-1.181-0.413-1.181-1.181V864.773z M711.04,892.173c0-0.768,0.413-1.182,1.181-1.182h5.374
				c0.768,0,1.181,0.414,1.181,1.182v5.432c0,0.768-0.413,1.182-1.181,1.182h-5.374c-0.768,0-1.181-0.414-1.181-1.182V892.173z"/>
		</g>
		<g>
			<path fill="#4E4E4E" d="M824.606,878.06c0,0.768-0.413,1.181-1.182,1.181h-32.832c-0.768,0-1.182-0.413-1.182-1.181v-5.551
				c0-0.769,0.414-1.182,1.182-1.182h32.832c0.769,0,1.182,0.413,1.182,1.182V878.06z M824.665,890.874
				c0,0.768-0.413,1.181-1.181,1.181h-32.833c-0.768,0-1.181-0.413-1.181-1.181v-5.551c0-0.768,0.413-1.181,1.181-1.181h32.833
				c0.768,0,1.181,0.413,1.181,1.181V890.874z"/>
		</g>
		<g>
			<path fill="#4E4E4E" d="M917.916,884.024c0,0.768-0.413,1.181-1.182,1.181h-32.832c-0.768,0-1.182-0.413-1.182-1.181v-5.552
				c0-0.768,0.414-1.18,1.182-1.18h32.832c0.769,0,1.182,0.412,1.182,1.18V884.024z"/>
		</g>
		<g>
			<path fill="#4E4E4E" d="M71.348,967.796c0.532,0.531,0.532,1.121,0,1.653l-8.798,8.798l8.798,8.799
				c0.532,0.532,0.532,1.123,0,1.654l-3.956,3.956c-0.531,0.532-1.122,0.532-1.653,0l-8.799-8.799l-8.799,8.799
				c-0.531,0.532-1.122,0.532-1.653,0l-3.956-3.956c-0.531-0.531-0.531-1.122,0-1.654l8.799-8.799l-8.799-8.798
				c-0.531-0.532-0.531-1.122,0-1.653l3.956-3.957c0.531-0.531,1.122-0.531,1.653,0l8.799,8.799l8.799-8.799
				c0.531-0.531,1.122-0.531,1.653,0L71.348,967.796z"/>
		</g>
		<g>
			<path fill="#4E4E4E" d="M167.656,981.024c0,0.768-0.413,1.181-1.182,1.181h-12.459v12.46c0,0.768-0.414,1.181-1.182,1.181h-5.551
				c-0.768,0-1.181-0.413-1.181-1.181v-12.46h-12.46c-0.768,0-1.182-0.413-1.182-1.181v-5.552c0-0.768,0.414-1.18,1.182-1.18h12.46
				v-12.461c0-0.768,0.413-1.181,1.181-1.181h5.551c0.768,0,1.182,0.413,1.182,1.181v12.461h12.459c0.769,0,1.182,0.412,1.182,1.18
				V981.024z"/>
		</g>
		<g>
			<path fill="#4E4E4E" d="M251.231,961.478c0,4.192-3.425,7.617-7.617,7.617c-4.311,0-7.677-3.425-7.677-7.617
				c0-4.252,3.366-7.736,7.677-7.736C247.807,953.742,251.231,957.226,251.231,961.478z M240.897,961.478
				c0,1.417,1.24,2.656,2.717,2.656c1.417,0,2.657-1.239,2.657-2.656c0-1.477-1.24-2.717-2.657-2.717
				C242.138,958.761,240.897,960.002,240.897,961.478z"/>
		</g>
		<g>
			<rect x="10.5" y="83.498" fill="none" stroke="#4E4E4E" width="939" height="940"/>
			<line fill="none" stroke="#4E4E4E" x1="10" y1="929.498" x2="950" y2="929.498"/>
			<line fill="none" stroke="#4E4E4E" x1="10" y1="835.498" x2="950" y2="835.498"/>
			<line fill="none" stroke="#4E4E4E" x1="10" y1="741.498" x2="950" y2="741.498"/>
			<line fill="none" stroke="#4E4E4E" x1="10" y1="647.498" x2="950" y2="647.498"/>
			<line fill="none" stroke="#4E4E4E" x1="10" y1="553.498" x2="950" y2="553.498"/>
			<line fill="none" stroke="#4E4E4E" x1="10" y1="459.498" x2="950" y2="459.498"/>
			<line fill="none" stroke="#4E4E4E" x1="10" y1="365.498" x2="950" y2="365.498"/>
			<line fill="none" stroke="#4E4E4E" x1="10" y1="271.498" x2="950" y2="271.498"/>
			<line fill="none" stroke="#4E4E4E" x1="10" y1="177.498" x2="950" y2="177.498"/>
			<line fill="none" stroke="#4E4E4E" x1="855.5" y1="82.998" x2="855.5" y2="1022.998"/>
			<line fill="none" stroke="#4E4E4E" x1="761.5" y1="82.998" x2="761.5" y2="1022.998"/>
			<line fill="none" stroke="#4E4E4E" x1="667.5" y1="82.998" x2="667.5" y2="1022.998"/>
			<line fill="none" stroke="#4E4E4E" x1="573.5" y1="82.998" x2="573.5" y2="1022.998"/>
			<line fill="none" stroke="#4E4E4E" x1="479.5" y1="82.998" x2="479.5" y2="1022.998"/>
			<line fill="none" stroke="#4E4E4E" x1="385.5" y1="82.998" x2="385.5" y2="1022.998"/>
			<line fill="none" stroke="#4E4E4E" x1="291.5" y1="82.998" x2="291.5" y2="1022.998"/>
			<line fill="none" stroke="#4E4E4E" x1="197.5" y1="82.998" x2="197.5" y2="1022.998"/>
			<line fill="none" stroke="#4E4E4E" x1="103.5" y1="82.998" x2="103.5" y2="1022.998"/>
		</g>
	</g>
</g>
</svg>
