<?xml version="1.0" encoding="utf-8"?>
<!-- Generator: Adobe Illustrator 17.0.0, SVG Export Plug-In . SVG Version: 6.00 Build 0)  -->
<!DOCTYPE svg PUBLIC "-//W3C//DTD SVG 1.1//EN" "http://www.w3.org/Graphics/SVG/1.1/DTD/svg11.dtd">
<svg version="1.1" xmlns="http://www.w3.org/2000/svg" xmlns:xlink="http://www.w3.org/1999/xlink" x="0px" y="0px" width="960px"
	 height="680px" viewBox="0 0 960 680" enable-background="new 0 0 960 680" xml:space="preserve">
<g id="bkgd">
</g>
<g id="Norwester">
	<g>
		<path fill="#4E4E4E" d="M47.864,299.943c0-1.214,0.607-1.943,1.943-1.943h12.629c1.214,0,1.943,0.729,1.943,1.943v65.572
			c0,11.414-6.193,17.486-17.486,17.486h-13.6c-11.414,0-17.486-6.072-17.486-17.486v-12.629c0-1.214,0.607-1.943,1.943-1.943
			h12.143c1.214,0,1.943,0.729,1.943,1.943v9.229c0,3.157,1.7,4.858,4.857,4.858h6.314c3.157,0,4.857-1.701,4.857-4.858V299.943z"/>
		<path fill="#4E4E4E" d="M124.972,312.085c0,1.214-0.486,2.065-1.943,2.065H93.036v18.7h22.829c1.214,0,1.943,0.729,1.943,2.064
			v12.021c0,1.335-0.729,2.064-1.943,2.064H93.036v17.972h29.993c1.457,0,1.943,0.607,1.943,1.943v12.143
			c0,1.214-0.486,1.943-1.943,1.943H78.344c-1.093,0-1.822-0.729-1.822-1.943v-81.114c0-1.214,0.729-1.943,1.822-1.943h44.686
			c1.457,0,1.943,0.729,1.943,1.943V312.085z"/>
		<path fill="#4E4E4E" d="M184.472,339.893c0,7.043-2.307,12.021-6.8,14.814l6.315,26.107c0.364,1.457-0.364,2.186-1.7,2.186h-11.9
			c-1.214,0-1.822-0.608-2.064-1.701l-5.829-23.921h-10.807v23.679c0,1.214-0.729,1.943-1.943,1.943h-11.9
			c-1.214,0-1.943-0.729-1.943-1.943v-81.114c0-1.214,0.729-1.943,1.943-1.943h29.143c11.414,0,17.486,6.072,17.486,17.486V339.893z
			 M151.687,341.715h12.143c3.157,0,4.857-1.701,4.857-4.858v-18.335c0-3.157-1.7-4.858-4.857-4.858h-12.143V341.715z"/>
		<path fill="#4E4E4E" d="M245.066,312.085c0,1.214-0.486,2.065-1.943,2.065H213.13v18.7h22.829c1.214,0,1.943,0.729,1.943,2.064
			v12.021c0,1.335-0.729,2.064-1.943,2.064H213.13v17.972h29.993c1.457,0,1.943,0.607,1.943,1.943v12.143
			c0,1.214-0.486,1.943-1.943,1.943h-44.686c-1.093,0-1.822-0.729-1.822-1.943v-81.114c0-1.214,0.729-1.943,1.822-1.943h44.686
			c1.457,0,1.943,0.729,1.943,1.943V312.085z"/>
		<path fill="#4E4E4E" d="M323.993,298c1.579,0,2.429,0.85,2.429,2.428v80.143c0,1.578-0.85,2.428-2.429,2.428h-11.293
			c-1.579,0-2.429-0.85-2.429-2.428V332.85h-0.85l-11.414,48.085c-0.364,1.336-1.214,2.065-2.671,2.065h-7.164
			c-1.457,0-2.307-0.729-2.672-2.065l-11.414-48.085h-0.85v47.721c0,1.578-0.85,2.428-2.429,2.428h-11.171
			c-1.578,0-2.429-0.85-2.429-2.428v-80.143c0-1.578,0.85-2.428,2.429-2.428h16.028c1.457,0,2.307,0.729,2.672,2.064l13.478,54.158
			l13.479-54.158c0.364-1.335,1.214-2.064,2.671-2.064H323.993z"/>
		<path fill="#4E4E4E" d="M340.508,383c-1.336,0-1.943-0.729-1.943-1.943v-81.114c0-1.214,0.607-1.943,1.943-1.943h12.629
			c1.214,0,1.943,0.729,1.943,1.943v81.114c0,1.214-0.729,1.943-1.943,1.943H340.508z"/>
		<path fill="#4E4E4E" d="M412.757,383c-1.093,0-1.7-0.608-1.943-1.701l-3.886-15.3H384.1l-3.764,15.3
			c-0.243,1.093-0.85,1.701-1.943,1.701h-11.9c-1.336,0-1.943-0.729-1.579-2.065l20.157-81.235c0.243-1.214,0.971-1.7,2.064-1.7
			h16.879c1.093,0,1.821,0.485,2.064,1.7l20.157,81.235c0.364,1.336-0.243,2.065-1.7,2.065H412.757z M387.865,351.914h15.3
			l-7.65-33.028L387.865,351.914z"/>
		<path fill="#4E4E4E" d="M468.127,299.943c0-1.214,0.729-1.943,1.943-1.943h12.507c1.457,0,2.065,0.729,2.065,1.943v81.114
			c0,1.214-0.608,1.943-2.065,1.943H470.07c-1.214,0-1.943-0.729-1.943-1.943v-32.3h-15.543v32.3c0,1.214-0.729,1.943-1.943,1.943
			h-12.507c-1.457,0-2.064-0.729-2.064-1.943v-81.114c0-1.214,0.607-1.943,2.064-1.943h12.507c1.214,0,1.943,0.729,1.943,1.943
			v32.785h15.543V299.943z"/>
		<path fill="#4E4E4E" d="M559.199,299.943c0-1.214,0.608-1.943,1.943-1.943h12.629c1.214,0,1.943,0.729,1.943,1.943v65.572
			c0,11.414-6.193,17.486-17.486,17.486h-13.6c-11.415,0-17.486-6.072-17.486-17.486v-12.629c0-1.214,0.607-1.943,1.943-1.943
			h12.143c1.214,0,1.943,0.729,1.943,1.943v9.229c0,3.157,1.7,4.858,4.857,4.858h6.315c3.157,0,4.857-1.701,4.857-4.858V299.943z"/>
		<path fill="#4E4E4E" d="M587.857,315.486c0-11.414,6.071-17.486,17.486-17.486h13.6c11.414,0,17.486,6.072,17.486,17.486v50.029
			c0,11.414-6.072,17.486-17.486,17.486h-13.6c-11.415,0-17.486-6.072-17.486-17.486V315.486z M616.271,367.335
			c3.157,0,4.857-1.578,4.857-4.857v-43.957c0-3.157-1.7-4.858-4.857-4.858H608.5c-3.157,0-4.858,1.701-4.858,4.858v43.957
			c0,3.278,1.701,4.857,4.858,4.857H616.271z"/>
		<path fill="#4E4E4E" d="M680.629,299.943c0-1.214,0.729-1.943,1.943-1.943h12.507c1.457,0,2.065,0.729,2.065,1.943v81.114
			c0,1.214-0.608,1.943-2.065,1.943h-12.507c-1.214,0-1.943-0.729-1.943-1.943v-32.3h-15.543v32.3c0,1.214-0.729,1.943-1.943,1.943
			h-12.507c-1.457,0-2.064-0.729-2.064-1.943v-81.114c0-1.214,0.607-1.943,2.064-1.943h12.507c1.214,0,1.943,0.729,1.943,1.943
			v32.785h15.543V299.943z"/>
		<path fill="#4E4E4E" d="M759.194,298c1.214,0,1.943,0.729,1.943,1.943v81.114c0,1.214-0.729,1.943-1.943,1.943H749.6
			c-1.092,0-1.7-0.485-2.185-1.578l-22.829-46.386v46.022c0,1.214-0.608,1.943-1.943,1.943H711.23c-1.214,0-1.943-0.729-1.943-1.943
			v-81.114c0-1.214,0.729-1.943,1.943-1.943h9.592c1.093,0,1.701,0.485,2.186,1.578l22.829,46.385v-46.021
			c0-1.214,0.607-1.943,1.943-1.943H759.194z"/>
		<path fill="#4E4E4E" d="M804.365,298c11.414,0,17.486,6.072,17.486,17.486v8.015c0,1.214-0.608,1.943-1.943,1.943h-12.265
			c-1.214,0-1.943-0.729-1.943-1.943v-5.1c0-3.158-1.578-4.858-4.857-4.858h-6.679c-3.035,0-4.857,1.7-4.857,4.858v10.321
			l29.386,9.471c2.064,0.729,3.157,2.186,3.157,4.493v22.829c0,11.414-6.072,17.486-17.486,17.486h-13.6
			c-11.293,0-17.486-6.072-17.486-17.486v-7.893c0-1.335,0.728-1.943,1.943-1.943h12.264c1.336,0,1.943,0.608,1.943,1.943v5.101
			c0,3.278,1.822,4.857,4.858,4.857h6.557c3.157,0,4.857-1.578,4.857-4.857v-12.265l-29.143-9.471
			c-2.186-0.729-3.278-2.186-3.278-4.493v-21.007c0-11.414,6.193-17.486,17.486-17.486H804.365z"/>
		<path fill="#4E4E4E" d="M833.994,315.486c0-11.414,6.071-17.486,17.486-17.486h13.6c11.414,0,17.486,6.072,17.486,17.486v50.029
			c0,11.414-6.072,17.486-17.486,17.486h-13.6c-11.415,0-17.486-6.072-17.486-17.486V315.486z M862.408,367.335
			c3.157,0,4.857-1.578,4.857-4.857v-43.957c0-3.157-1.7-4.858-4.857-4.858h-7.771c-3.157,0-4.858,1.701-4.858,4.858v43.957
			c0,3.278,1.701,4.857,4.858,4.857H862.408z"/>
		<path fill="#4E4E4E" d="M944.615,298c1.214,0,1.943,0.729,1.943,1.943v81.114c0,1.214-0.729,1.943-1.943,1.943h-9.593
			c-1.092,0-1.7-0.485-2.185-1.578l-22.829-46.386v46.022c0,1.214-0.608,1.943-1.943,1.943h-11.414
			c-1.215,0-1.943-0.729-1.943-1.943v-81.114c0-1.214,0.728-1.943,1.943-1.943h9.592c1.093,0,1.701,0.485,2.186,1.578l22.829,46.385
			v-46.021c0-1.214,0.607-1.943,1.943-1.943H944.615z"/>
	</g>
	<g>
		<path fill="#4E4E4E" d="M249.335,20c4.96,0,7.44,2.834,6.731,7.44l-34.012,234.184c-0.708,4.251-3.189,6.376-7.794,6.376h-38.263
			c-4.252,0-6.731-2.125-7.794-6.376l-32.594-145.258l-32.949,145.258c-1.063,4.251-3.543,6.376-7.794,6.376H55.895
			c-4.606,0-7.086-2.125-7.794-6.73L15.506,27.44C14.797,22.834,17.277,20,22.238,20H55.54c4.252,0,6.732,2.125,7.44,6.731
			l17.36,148.092h1.772l34.72-148.8c1.063-3.897,3.543-6.023,7.794-6.023h21.611c4.252,0,6.732,2.125,7.794,6.023l34.72,148.8h1.772
			l18.068-148.092c0.709-4.606,2.834-6.731,7.44-6.731H249.335z"/>
		<path fill="#4E4E4E" d="M398.845,268c-3.189,0-4.96-1.771-5.669-4.959l-11.337-44.64h-66.606l-10.983,44.64
			c-0.709,3.188-2.48,4.959-5.669,4.959h-34.72c-3.897,0-5.669-2.125-4.605-6.022L318.068,24.96c0.708-3.543,2.834-4.96,6.023-4.96
			h49.246c3.189,0,5.314,1.417,6.023,4.96l58.812,237.018c1.063,3.896-0.708,6.022-4.96,6.022H398.845z M326.216,177.303h44.64
			l-22.32-96.365L326.216,177.303z"/>
		<path fill="#4E4E4E" d="M605.038,142.228c0,20.549-6.731,35.074-19.84,43.223l18.423,76.172c1.063,4.251-1.063,6.376-4.96,6.376
			h-34.72c-3.543,0-5.314-1.771-6.023-4.959l-17.006-69.794H509.38v69.086c0,3.542-2.125,5.668-5.669,5.668h-34.72
			c-3.543,0-5.669-2.125-5.669-5.668V25.669c0-3.543,2.126-5.669,5.669-5.669h85.029c33.303,0,51.017,17.714,51.017,51.017V142.228z
			 M509.38,147.543h35.428c9.212,0,14.172-4.96,14.172-14.171V79.875c0-9.212-4.96-14.172-14.172-14.172H509.38V147.543z"/>
		<path fill="#4E4E4E" d="M781.826,61.097c0,3.542-1.417,6.023-5.669,6.023h-87.508v54.56h66.605c3.543,0,5.669,2.126,5.669,6.024
			v35.074c0,3.896-2.125,6.023-5.669,6.023h-66.605v52.434h87.508c4.252,0,5.669,1.771,5.669,5.669v35.429
			c0,3.542-1.417,5.668-5.669,5.668H645.78c-3.188,0-5.314-2.125-5.314-5.668V25.669c0-3.543,2.126-5.669,5.314-5.669h130.378
			c4.252,0,5.669,2.125,5.669,5.669V61.097z"/>
		<path fill="#4E4E4E" d="M897.323,20c33.303,0,51.017,17.714,51.017,51.017V94.4c0,3.542-1.771,5.669-5.669,5.669h-35.783
			c-3.543,0-5.669-2.126-5.669-5.669V79.52c0-9.211-4.606-14.171-14.172-14.171h-19.485c-8.858,0-14.172,4.96-14.172,14.171v30.114
			l85.737,27.635c6.024,2.125,9.212,6.376,9.212,13.108v66.606c0,33.303-17.714,51.016-51.017,51.016h-39.68
			c-32.949,0-51.017-17.713-51.017-51.016v-23.029c0-3.897,2.126-5.67,5.669-5.67h35.783c3.897,0,5.669,1.772,5.669,5.67v14.879
			c0,9.566,5.314,14.171,14.172,14.171h19.131c9.212,0,14.172-4.605,14.172-14.171v-35.783l-85.029-27.634
			c-6.377-2.126-9.566-6.377-9.566-13.109V71.017c0-33.303,18.068-51.017,51.017-51.017H897.323z"/>
	</g>
	<g>
		<path fill="#4E4E4E" d="M88.895,418c2.104,0,3.825,1.721,3.825,3.825V543.46c0,17.978-9.563,27.54-27.54,27.54H43.76
			c-17.978,0-27.54-9.563-27.54-27.54V421.825c0-2.104,1.721-3.825,3.825-3.825h18.36c2.104,0,3.825,1.721,3.825,3.825v116.28
			c0,5.164,2.677,7.65,7.65,7.65h9.945c4.972,0,7.65-2.486,7.65-7.65v-116.28c0-2.104,1.721-3.825,3.825-3.825H88.895z"/>
		<path fill="#4E4E4E" d="M190.451,418c1.912,0,3.06,1.148,3.06,3.06v146.88c0,1.913-1.148,3.06-3.06,3.06h-18.934
			c-1.721,0-2.869-0.765-3.442-2.487l-29.261-81.664h-0.956v81.09c0,1.913-0.956,3.06-3.06,3.06h-19.89
			c-1.912,0-3.06-1.148-3.06-3.06V421.06c0-1.912,1.148-3.06,3.06-3.06h18.934c1.721,0,2.868,0.764,3.442,2.486l29.07,81.282h1.148
			V421.06c0-1.912,0.956-3.06,3.06-3.06H190.451z"/>
		<path fill="#4E4E4E" d="M212.637,421.06c0-1.912,0.956-3.06,3.06-3.06h45.9c17.977,0,27.54,9.754,27.54,27.731v97.728
			c0,17.978-9.563,27.54-27.54,27.54h-45.9c-2.104,0-3.06-0.956-3.06-3.06V421.06z M256.242,545.755c4.972,0,7.65-2.486,7.65-7.65
			v-87.018c0-5.164-2.677-7.842-7.65-7.842h-17.595v102.51H256.242z"/>
		<path fill="#4E4E4E" d="M384.572,440.185c0,1.912-0.765,3.252-3.06,3.252h-47.812v38.249h36.529c1.912,0,3.06,1.148,3.06,3.252
			v18.933c0,2.105-1.148,3.252-3.06,3.252h-36.529v38.632h47.812c2.295,0,3.06,0.957,3.06,3.06v19.124c0,1.913-0.765,3.06-3.06,3.06
			h-70.38c-1.721,0-2.868-1.148-2.868-3.06V421.06c0-1.912,1.147-3.06,2.868-3.06h70.38c2.295,0,3.06,1.148,3.06,3.06V440.185z"/>
		<path fill="#4E4E4E" d="M480.39,492.204c0,12.814-4.781,21.23-13.961,25.245l13.196,50.108c0.574,2.295-0.574,3.443-2.678,3.443
			h-19.89c-1.912,0-2.869-0.956-3.251-2.677l-12.814-48.578h-13.196v48.195c0,1.913-1.148,3.06-3.06,3.06h-19.89
			c-1.912,0-3.06-1.148-3.06-3.06V421.06c0-1.912,1.148-3.06,3.06-3.06h48.004c17.977,0,27.54,9.563,27.54,27.54V492.204z
			 M427.796,494.5h18.934c4.972,0,7.65-2.676,7.65-7.65v-35.955c0-4.972-2.678-7.651-7.65-7.651h-18.934V494.5z"/>
		<path fill="#4E4E4E" d="M569.129,418c2.104,0,3.06,1.148,3.06,3.06v19.125c0,1.912-0.956,3.06-3.06,3.06h-22.185V567.94
			c0,2.104-0.957,3.06-3.06,3.06h-19.89c-1.913,0-3.06-0.956-3.06-3.06V443.244h-22.185c-1.912,0-3.06-1.148-3.06-3.06V421.06
			c0-1.912,1.148-3.06,3.06-3.06H569.129z"/>
		<path fill="#4E4E4E" d="M583.666,445.54c0-17.977,9.563-27.54,27.54-27.54h21.42c17.977,0,27.539,9.563,27.539,27.54v97.92
			c0,17.978-9.563,27.54-27.539,27.54h-21.42c-17.977,0-27.54-9.563-27.54-27.54V445.54z M627.844,546.328
			c4.972,0,7.651-2.486,7.651-7.65v-88.357c0-4.972-2.678-7.651-7.651-7.651h-11.092c-4.972,0-7.65,2.678-7.65,7.651v88.357
			c0,5.164,2.677,7.65,7.65,7.65H627.844z"/>
		<path fill="#4E4E4E" d="M757.897,418c1.912,0,3.06,1.148,3.06,3.06v146.88c0,1.913-1.148,3.06-3.06,3.06h-18.934
			c-1.721,0-2.869-0.765-3.443-2.487l-29.262-81.664h-0.956v81.09c0,1.913-0.956,3.06-3.06,3.06h-19.891
			c-1.912,0-3.06-1.148-3.06-3.06V421.06c0-1.912,1.148-3.06,3.06-3.06h18.934c1.721,0,2.869,0.764,3.443,2.486l29.07,81.282h1.148
			V421.06c0-1.912,0.956-3.06,3.06-3.06H757.897z"/>
		<path fill="#4E4E4E" d="M856.391,440.185c0,1.912-0.765,3.252-3.06,3.252h-47.812v38.249h36.528c1.913,0,3.06,1.148,3.06,3.252
			v18.933c0,2.105-1.148,3.252-3.06,3.252h-36.528v38.632h47.812c2.295,0,3.06,0.957,3.06,3.06v19.124c0,1.913-0.765,3.06-3.06,3.06
			h-70.38c-1.721,0-2.869-1.148-2.869-3.06V421.06c0-1.912,1.148-3.06,2.869-3.06h70.38c2.295,0,3.06,1.148,3.06,3.06V440.185z"/>
		<path fill="#4E4E4E" d="M918.739,418c17.978,0,27.539,9.563,27.539,27.54v20.273c0,1.912-0.956,3.06-3.06,3.06h-19.89
			c-1.913,0-3.06-1.148-3.06-3.06v-14.917c0-4.972-2.486-7.651-7.65-7.651h-9.18c-4.781,0-7.65,2.678-7.65,7.651v26.393
			l45.517,14.916c3.251,1.339,4.972,3.443,4.972,7.077v44.178c0,17.978-9.562,27.54-27.539,27.54h-21.42
			c-17.786,0-27.54-9.563-27.54-27.54v-20.08c0-2.104,1.148-3.06,3.06-3.06h19.891c2.104,0,3.06,0.956,3.06,3.06v14.726
			c0,5.164,2.869,7.65,7.65,7.65h9.18c4.972,0,7.65-2.486,7.65-7.65v-25.436l-45.326-14.917c-3.443-1.148-5.164-3.443-5.164-7.076
			V445.54c0-17.977,9.753-27.54,27.54-27.54H918.739z"/>
	</g>
	<g>
		<path fill="#4E4E4E" d="M49.103,623.321c0,2.96-2.16,5.2-5.04,5.68v0.16c2.88,0.48,5.04,2.72,5.04,5.68v10.641
			c0,7.52-4.08,11.52-11.6,11.52h-19.2c-0.8,0-1.28-0.48-1.28-1.28v-53.44c0-0.88,0.48-1.28,1.28-1.28h19.2
			c7.52,0,11.6,4.001,11.6,11.52V623.321z M35.743,623.8c2.08,0,3.2-1.12,3.2-3.12v-6.401c0-2.079-1.04-3.2-3.2-3.2h-8.8v12.72
			H35.743z M35.743,646.92c2.08,0,3.2-1.039,3.2-3.2v-6.16c0-2.08-1.04-3.201-3.2-3.201h-8.8v12.56H35.743z"/>
		<path fill="#4E4E4E" d="M57.102,612.52c0-7.519,4-11.52,11.52-11.52h8.96c7.52,0,11.52,4.001,11.52,11.52v32.96
			c0,7.52-4,11.52-11.52,11.52h-8.96c-7.52,0-11.52-4-11.52-11.52V612.52z M75.822,646.68c2.08,0,3.2-1.04,3.2-3.2v-28.96
			c0-2.08-1.12-3.201-3.2-3.201h-5.12c-2.08,0-3.2,1.12-3.2,3.201v28.96c0,2.159,1.12,3.2,3.2,3.2H75.822z"/>
		<path fill="#4E4E4E" d="M135.262,655.08c0.56,1.121,0.08,1.92-1.2,1.92h-8.24c-0.88,0-1.44-0.32-1.84-1.12l-8.48-17.359
			l-8.48,17.359c-0.4,0.8-0.96,1.12-1.84,1.12h-8.24c-1.28,0-1.76-0.799-1.2-1.92l13.52-26.719l-12.72-25.44
			c-0.56-1.04-0.08-1.92,1.2-1.92h8.24c0.88,0,1.44,0.32,1.84,1.12l7.68,16.16l7.68-16.16c0.4-0.8,0.96-1.12,1.84-1.12h8.24
			c1.28,0,1.76,0.88,1.2,1.92l-12.64,25.44L135.262,655.08z"/>
		<path fill="#4E4E4E" d="M193.1,601c0.88,0,1.6,0.72,1.6,1.601v42.88c0,7.52-4,11.52-11.52,11.52h-8.96
			c-7.52,0-11.52-4-11.52-11.52v-42.88c0-0.88,0.72-1.601,1.6-1.601h7.68c0.88,0,1.6,0.72,1.6,1.601v40.639
			c0,2.16,1.12,3.201,3.2,3.201h4.16c2.08,0,3.2-1.04,3.2-3.201v-40.639c0-0.88,0.72-1.601,1.6-1.601H193.1z"/>
		<path fill="#4E4E4E" d="M202.699,602.28c0-0.8,0.48-1.28,1.28-1.28h19.2c7.52,0,11.52,4.001,11.52,11.52v15.681
			c0,7.44-4,11.439-11.52,11.599h-10.08v16c0,0.8-0.4,1.28-1.28,1.2h-7.84c-0.8,0-1.28-0.48-1.28-1.28V602.28z M221.099,629.4
			c2.16,0,3.2-1.199,3.2-3.2v-11.68c0-2.08-1.04-3.201-3.2-3.121h-8v18H221.099z"/>
		<path fill="#4E4E4E" d="M306.698,601c1.04,0,1.6,0.56,1.6,1.601v52.8c0,1.04-0.56,1.6-1.6,1.6h-7.44c-1.04,0-1.6-0.56-1.6-1.6
			v-31.44h-0.56l-7.52,31.68c-0.24,0.88-0.8,1.36-1.76,1.36h-4.72c-0.96,0-1.52-0.48-1.76-1.36l-7.52-31.68h-0.56v31.44
			c0,1.04-0.56,1.6-1.6,1.6h-7.36c-1.04,0-1.6-0.56-1.6-1.6v-52.8c0-1.041,0.56-1.601,1.6-1.601h10.56c0.96,0,1.52,0.48,1.76,1.361
			l8.88,35.679l8.88-35.679c0.24-0.881,0.8-1.361,1.76-1.361H306.698z"/>
		<path fill="#4E4E4E" d="M352.137,601c1.2,0,1.76,0.8,1.28,1.841l-14.64,33.2v19.36c0,1.04-0.56,1.6-1.6,1.6h-7.68
			c-1.04,0-1.6-0.56-1.6-1.6v-19.36l-14.64-33.2c-0.48-1.04,0.08-1.841,1.28-1.841h8c0.96,0,1.52,0.48,1.84,1.28l8.96,20.561
			l8.96-20.561c0.32-0.8,0.88-1.28,1.84-1.28H352.137z"/>
		<path fill="#4E4E4E" d="M431.176,601c1.12,0,1.68,0.641,1.52,1.681l-7.68,52.88c-0.16,0.96-0.72,1.44-1.76,1.44h-8.64
			c-0.96,0-1.52-0.48-1.76-1.44l-7.36-32.8l-7.44,32.8c-0.24,0.96-0.8,1.44-1.76,1.44h-8.8c-1.04,0-1.6-0.48-1.76-1.52l-7.36-52.8
			c-0.16-1.04,0.4-1.681,1.52-1.681h7.52c0.96,0,1.52,0.48,1.68,1.521l3.92,33.44h0.4l7.84-33.6c0.24-0.881,0.8-1.361,1.76-1.361
			h4.88c0.96,0,1.52,0.48,1.76,1.361l7.84,33.6h0.4l4.08-33.44c0.16-1.041,0.64-1.521,1.68-1.521H431.176z"/>
		<path fill="#4E4E4E" d="M460.855,602.28c0-0.8,0.48-1.28,1.28-1.28h8.24c0.96,0,1.36,0.48,1.36,1.28v53.44
			c0,0.8-0.4,1.28-1.36,1.28h-8.24c-0.8,0-1.28-0.48-1.28-1.28v-21.28h-10.24v21.28c0,0.8-0.48,1.28-1.28,1.28h-8.24
			c-0.96,0-1.36-0.48-1.36-1.28v-53.44c0-0.8,0.4-1.28,1.36-1.28h8.24c0.8,0,1.28,0.48,1.28,1.28v21.6h10.24V602.28z"/>
		<path fill="#4E4E4E" d="M481.014,657c-0.88,0-1.28-0.48-1.28-1.28v-53.44c0-0.8,0.4-1.28,1.28-1.28h8.32
			c0.799,0,1.28,0.48,1.28,1.28v53.44c0,0.8-0.481,1.28-1.28,1.28H481.014z"/>
		<path fill="#4E4E4E" d="M519.093,601c7.52,0,11.52,4.001,11.52,11.52v5.281c0,0.799-0.4,1.279-1.28,1.279h-8.08
			c-0.8,0-1.28-0.48-1.28-1.279v-3.36c0-2.08-1.04-3.201-3.201-3.201h-4.4c-2,0-3.2,1.12-3.2,3.201v6.8l19.361,6.24
			c1.36,0.481,2.079,1.44,2.079,2.96v15.04c0,7.52-4,11.52-11.52,11.52h-8.96c-7.44,0-11.52-4-11.52-11.52v-5.2
			c0-0.88,0.48-1.28,1.28-1.28h8.08c0.88,0,1.28,0.4,1.28,1.28v3.36c0,2.159,1.2,3.2,3.201,3.2h4.32c2.08,0,3.201-1.04,3.201-3.2
			v-8.081l-19.2-6.24c-1.44-0.48-2.16-1.44-2.16-2.96v-13.84c0-7.519,4.08-11.52,11.52-11.52H519.093z"/>
		<path fill="#4E4E4E" d="M564.373,657c-0.96,0-1.44-0.4-1.84-1.2l-10.08-19.76l-2.96,5.68v13.68c0,1.04-0.561,1.6-1.601,1.6h-7.68
			c-1.039,0-1.6-0.56-1.6-1.6v-52.8c0-1.041,0.561-1.601,1.6-1.601h7.68c1.04,0,1.601,0.56,1.601,1.601v20.8l12.319-21.2
			c0.401-0.72,0.96-1.2,1.841-1.2h8.399c1.2,0,1.761,0.88,1.12,1.92l-13.599,23.919l14.48,28.32c0.56,1.041,0.08,1.841-1.2,1.841
			H564.373z"/>
		<path fill="#4E4E4E" d="M612.612,610.281c0,0.799-0.32,1.359-1.28,1.359h-19.76v12.32h15.039c0.8,0,1.28,0.48,1.28,1.36v7.921
			c0,0.879-0.48,1.359-1.28,1.359h-15.039v11.841h19.76c0.96,0,1.28,0.4,1.28,1.28v8c0,0.8-0.32,1.28-1.28,1.28h-29.44
			c-0.719,0-1.2-0.48-1.2-1.28v-53.44c0-0.8,0.481-1.28,1.2-1.28h29.44c0.96,0,1.28,0.48,1.28,1.28V610.281z"/>
		<path fill="#4E4E4E" d="M656.451,601c1.2,0,1.76,0.8,1.28,1.841l-14.64,33.2v19.36c0,1.04-0.561,1.6-1.601,1.6h-7.68
			c-1.039,0-1.6-0.56-1.6-1.6v-19.36l-14.64-33.2c-0.481-1.04,0.08-1.841,1.28-1.841h8c0.96,0,1.52,0.48,1.84,1.28l8.96,20.561
			l8.96-20.561c0.321-0.8,0.88-1.28,1.841-1.28H656.451z"/>
		<path fill="#4E4E4E" d="M662.689,648.04c0-1.04,0.561-1.6,1.6-1.6h7.28c1.04,0,1.6,0.56,1.6,1.6v7.84c0,0.8-0.16,1.36-0.56,1.999
			l-4.321,6.561c-0.24,0.4-0.48,0.56-0.959,0.56h-3.6c-0.641,0-0.88-0.4-0.641-0.959l3.201-7.04h-2c-1.039,0-1.6-0.56-1.6-1.6
			V648.04z"/>
		<path fill="#4E4E4E" d="M733.247,621.16c0,0.799-0.48,1.28-1.28,1.28h-7.52c-0.879,0-1.28-0.481-1.28-1.28v-6.56
			c0-2.08-1.12-3.2-3.2-3.2h-5.12c-2.16,0-3.201,1.12-3.201,3.2v29.04c0,2.159,1.12,3.2,3.201,3.2h5.12c2.079,0,3.2-1.04,3.2-3.2
			v-6.801c0-0.799,0.401-1.28,1.28-1.28h7.52c0.8,0,1.28,0.481,1.28,1.28v8.64c0,7.52-4.08,11.52-11.52,11.52h-8.96
			c-7.52,0-11.6-4-11.6-11.52v-32.96c0-7.519,4.08-11.52,11.6-11.52h8.96c7.44,0,11.52,4.001,11.52,11.52V621.16z"/>
		<path fill="#4E4E4E" d="M769.647,657c-0.72,0-1.12-0.4-1.28-1.12l-2.56-10.08h-15.04l-2.48,10.08c-0.16,0.72-0.561,1.12-1.28,1.12
			h-7.84c-0.88,0-1.28-0.48-1.04-1.36l13.28-53.52c0.16-0.8,0.641-1.12,1.36-1.12h11.12c0.72,0,1.2,0.32,1.36,1.12l13.28,53.52
			c0.241,0.88-0.16,1.36-1.119,1.36H769.647z M753.247,636.52h10.08l-5.04-21.76L753.247,636.52z"/>
		<path fill="#4E4E4E" d="M785.005,602.28c0-0.8,0.48-1.28,1.28-1.28h19.2c7.52,0,11.52,4.001,11.52,11.52v15.681
			c0,7.44-4,11.439-11.52,11.599h-10.08v16c0,0.8-0.4,1.28-1.28,1.2h-7.84c-0.8,0-1.28-0.48-1.28-1.28V602.28z M803.405,629.4
			c2.16,0,3.201-1.199,3.201-3.2v-11.68c0-2.08-1.04-3.201-3.201-3.121h-8v18H803.405z"/>
		<path fill="#4E4E4E" d="M853.325,601c0.88,0,1.28,0.48,1.28,1.28v8.001c0,0.799-0.4,1.279-1.28,1.279h-9.28v44.16
			c0,0.88-0.401,1.28-1.28,1.28h-8.32c-0.799,0-1.28-0.4-1.28-1.28v-44.16h-9.28c-0.8,0-1.28-0.48-1.28-1.279v-8.001
			c0-0.8,0.48-1.28,1.28-1.28H853.325z"/>
		<path fill="#4E4E4E" d="M884.606,657c-0.72,0-1.12-0.4-1.28-1.12l-2.56-10.08h-15.04l-2.48,10.08c-0.16,0.72-0.561,1.12-1.28,1.12
			h-7.84c-0.88,0-1.28-0.48-1.04-1.36l13.28-53.52c0.16-0.8,0.641-1.12,1.36-1.12h11.12c0.72,0,1.2,0.32,1.36,1.12l13.28,53.52
			c0.241,0.88-0.16,1.36-1.119,1.36H884.606z M868.206,636.52h10.08l-5.04-21.76L868.206,636.52z"/>
		<path fill="#4E4E4E" d="M901.244,657c-0.88,0-1.28-0.48-1.28-1.28v-53.44c0-0.8,0.4-1.28,1.28-1.28h8.32
			c0.799,0,1.28,0.48,1.28,1.28v53.44c0,0.8-0.481,1.28-1.28,1.28H901.244z"/>
		<path fill="#4E4E4E" d="M951.723,601c0.799,0,1.28,0.48,1.28,1.28v53.44c0,0.8-0.481,1.28-1.28,1.28h-6.32
			c-0.72,0-1.12-0.32-1.44-1.04l-15.04-30.559v30.319c0,0.8-0.4,1.28-1.28,1.28h-7.52c-0.8,0-1.28-0.48-1.28-1.28v-53.44
			c0-0.8,0.48-1.28,1.28-1.28h6.32c0.72,0,1.12,0.32,1.44,1.04l15.04,30.56v-30.32c0-0.8,0.4-1.28,1.28-1.28H951.723z"/>
	</g>
</g>
</svg>
