<?xml version="1.0" encoding="utf-8"?>
<!-- Generator: Adobe Illustrator 17.0.0, SVG Export Plug-In . SVG Version: 6.00 Build 0)  -->
<!DOCTYPE svg PUBLIC "-//W3C//DTD SVG 1.1//EN" "http://www.w3.org/Graphics/SVG/1.1/DTD/svg11.dtd">
<svg version="1.1" xmlns="http://www.w3.org/2000/svg" xmlns:xlink="http://www.w3.org/1999/xlink" x="0px" y="0px" width="960px"
	 height="950px" viewBox="0 0 960 950" enable-background="new 0 0 960 950" xml:space="preserve">
<g id="bkgd">
</g>
<g id="Norwester">
	<g>
		<path fill="#4E4E4E" d="M16.183,86.52c0-19.27,10.25-29.52,29.52-29.52h22.96c19.27,0,29.52,10.25,29.52,29.52v104.96
			c0,19.27-10.25,29.52-29.52,29.52h-22.96c-19.27,0-29.52-10.25-29.52-29.52V86.52z M63.538,194.555c5.33,0,8.2-2.665,8.2-8.2
			v-94.71c0-5.329-2.87-8.2-8.2-8.2h-11.89c-5.33,0-8.2,2.87-8.2,8.2v94.71c0,5.535,2.87,8.2,8.2,8.2H63.538z"/>
		<path fill="#4E4E4E" d="M172.8,60.28c0-2.05,1.23-3.28,3.28-3.28h21.115c2.46,0,3.485,1.23,3.485,3.28v157.44
			c0,2.049-1.025,3.28-3.485,3.28H176.08c-2.05,0-3.28-1.231-3.28-3.28v-65.19h-26.24v65.19c0,2.049-1.23,3.28-3.28,3.28h-21.115
			c-2.46,0-3.485-1.231-3.485-3.28V60.28c0-2.05,1.025-3.28,3.485-3.28h21.115c2.05,0,3.28,1.23,3.28,3.28v65.19h26.24V60.28z"/>
		<path fill="#4E4E4E" d="M245.777,57c2.05,0,3.28,1.23,3.28,3.28l-1.435,111.725c0,2.049-1.23,3.28-3.28,3.28h-19.475
			c-2.255,0-3.28-1.231-3.28-3.28L220.152,60.28c0-2.05,1.025-3.28,3.28-3.28H245.777z M221.177,198.04c0-2.665,1.435-4.1,4.1-4.1
			h18.655c2.665,0,4.1,1.435,4.1,4.1v18.86c0,2.664-1.435,4.1-4.1,4.1h-18.655c-2.665,0-4.1-1.436-4.1-4.1V198.04z"/>
		<path fill="#4E4E4E" d="M320.802,60.28c0-2.05,1.025-3.28,3.28-3.28h49.2c19.27,0,29.52,10.455,29.52,29.725V191.48
			c0,19.27-10.25,29.52-29.52,29.52h-49.2c-2.255,0-3.28-1.026-3.28-3.28V60.28z M367.543,193.94c5.33,0,8.2-2.665,8.2-8.2V92.465
			c0-5.535-2.87-8.405-8.2-8.405h-18.86v109.88H367.543z"/>
		<path fill="#4E4E4E" d="M447.899,57c2.05,0,3.28,1.23,3.28,3.28v157.44c0,2.049-1.23,3.28-3.28,3.28h-21.32
			c-2.255,0-3.28-1.231-3.28-3.28V60.28c0-2.05,1.025-3.28,3.28-3.28H447.899z"/>
		<path fill="#4E4E4E" d="M471.676,60.28c0-2.05,1.025-3.28,3.28-3.28h49.201c19.269,0,29.52,10.455,29.52,29.725V191.48
			c0,19.27-10.251,29.52-29.52,29.52h-49.201c-2.255,0-3.28-1.026-3.28-3.28V60.28z M518.416,193.94c5.329,0,8.199-2.665,8.199-8.2
			V92.465c0-5.535-2.87-8.405-8.199-8.405h-18.86v109.88H518.416z"/>
		<path fill="#4E4E4E" d="M655.968,80.78c0,2.05-0.82,3.485-3.28,3.485h-51.25v41h39.155c2.05,0,3.28,1.23,3.28,3.485v20.295
			c0,2.255-1.23,3.485-3.28,3.485h-39.155v41.41h51.25c2.46,0,3.28,1.025,3.28,3.28v20.5c0,2.049-0.82,3.28-3.28,3.28h-75.44
			c-1.844,0-3.075-1.231-3.075-3.28V60.28c0-2.05,1.231-3.28,3.075-3.28h75.44c2.46,0,3.28,1.23,3.28,3.28V80.78z"/>
		<path fill="#4E4E4E" d="M758.671,136.54c0,13.735-5.125,22.755-14.965,27.06l14.146,53.711c0.615,2.459-0.616,3.69-2.87,3.69
			h-21.32c-2.049,0-3.075-1.026-3.485-2.87l-13.735-52.07h-14.145v51.66c0,2.049-1.231,3.28-3.28,3.28h-21.32
			c-2.05,0-3.28-1.231-3.28-3.28V60.28c0-2.05,1.23-3.28,3.28-3.28h51.455c19.27,0,29.52,10.25,29.52,29.52V136.54z M702.296,139
			h20.295c5.329,0,8.2-2.87,8.2-8.2V92.26c0-5.33-2.87-8.2-8.2-8.2h-20.295V139z"/>
		<path fill="#4E4E4E" d="M775.067,86.52c0-19.27,10.25-29.52,29.52-29.52h22.96c19.27,0,29.52,10.25,29.52,29.52v104.96
			c0,19.27-10.25,29.52-29.52,29.52h-22.96c-19.27,0-29.52-10.25-29.52-29.52V86.52z M822.423,194.555c5.329,0,8.2-2.665,8.2-8.2
			v-94.71c0-5.329-2.87-8.2-8.2-8.2h-11.89c-5.33,0-8.2,2.87-8.2,8.2v94.71c0,5.535,2.87,8.2,8.2,8.2H822.423z"/>
		<path fill="#4E4E4E" d="M946.034,57c2.255,0,3.28,1.23,3.28,3.28v20.5c0,2.05-1.025,3.28-3.28,3.28h-23.78v133.66
			c0,2.254-1.026,3.28-3.28,3.28h-21.32c-2.049,0-3.28-1.026-3.28-3.28V84.06h-23.78c-2.05,0-3.28-1.23-3.28-3.28v-20.5
			c0-2.05,1.23-3.28,3.28-3.28H946.034z"/>
	</g>
	<g>
		<path fill="#4E4E4E" d="M19.223,252.96c0-0.6,0.3-0.96,0.96-0.96h14.4c5.64,0,8.64,3.059,8.64,8.7v30.66c0,5.64-3,8.64-8.64,8.64
			h-14.4c-0.66,0-0.96-0.3-0.96-0.96V252.96z M32.903,292.08c1.56,0,2.4-0.78,2.4-2.4v-27.3c0-1.621-0.84-2.46-2.4-2.46h-5.52v32.16
			H32.903z"/>
		<path fill="#4E4E4E" d="M73.165,258.96c0,0.599-0.24,1.02-0.96,1.02h-15v12h11.46c0.6,0,0.96,0.359,0.96,1.019v5.94
			c0,0.66-0.36,1.02-0.96,1.02h-11.46v12.12h15c0.72,0,0.96,0.3,0.96,0.96v6c0,0.6-0.24,0.96-0.96,0.96h-22.08
			c-0.54,0-0.9-0.36-0.9-0.96v-46.08c0-0.6,0.36-0.96,0.9-0.96h22.08c0.72,0,0.96,0.36,0.96,0.96V258.96z"/>
		<path fill="#4E4E4E" d="M79.168,252.96c0-0.6,0.36-0.96,0.96-0.96h14.4c5.64,0,8.64,3,8.64,8.64v14.64c0,5.58-3,8.64-8.64,8.64
			h-7.2v15.12c0,0.6-0.3,0.96-0.96,0.96h-6.24c-0.6,0-0.96-0.36-0.96-0.96V252.96z M92.608,276c1.62,0,2.4-0.9,2.4-2.4v-11.28
			c0-1.56-0.78-2.4-2.4-2.4h-5.28V276H92.608z"/>
		<path fill="#4E4E4E" d="M128.731,300c-0.54,0-0.84-0.3-0.96-0.84l-1.68-8.76h-10.68l-1.62,8.76c-0.12,0.54-0.42,0.84-0.96,0.84
			h-6.42c-0.66,0-0.96-0.36-0.78-1.02l9.96-46.14c0.12-0.6,0.48-0.84,1.02-0.84h8.34c0.54,0,0.9,0.24,1.02,0.84l9.96,46.14
			c0.12,0.66-0.12,1.02-0.84,1.02H128.731z M116.911,283.44h7.68l-3.84-20.94L116.911,283.44z"/>
		<path fill="#4E4E4E" d="M165.994,275.28c0,4.019-1.5,6.659-4.38,7.919l4.14,15.721c0.18,0.72-0.18,1.08-0.84,1.08h-6.24
			c-0.6,0-0.9-0.3-1.02-0.84l-4.02-15.239h-4.14v15.12c0,0.6-0.36,0.96-0.96,0.96h-6.24c-0.6,0-0.96-0.36-0.96-0.96v-46.08
			c0-0.6,0.36-0.96,0.96-0.96h15.06c5.64,0,8.64,3,8.64,8.64V275.28z M149.494,276h5.94c1.56,0,2.4-0.839,2.4-2.4v-11.28
			c0-1.56-0.84-2.4-2.4-2.4h-5.94V276z"/>
		<path fill="#4E4E4E" d="M193.836,252c0.66,0,0.96,0.36,0.96,0.96v6c0,0.599-0.3,0.96-0.96,0.96h-6.96v39.12
			c0,0.66-0.3,0.96-0.96,0.96h-6.24c-0.6,0-0.96-0.3-0.96-0.96v-39.12h-6.96c-0.6,0-0.96-0.361-0.96-0.96v-6
			c0-0.6,0.36-0.96,0.96-0.96H193.836z"/>
		<path fill="#4E4E4E" d="M232.598,252c0.78,0,1.2,0.42,1.2,1.2v45.6c0,0.781-0.42,1.2-1.2,1.2h-5.58c-0.78,0-1.2-0.42-1.2-1.2v-27
			h-0.42l-5.94,27.12c-0.18,0.72-0.6,1.08-1.32,1.08h-2.94c-0.72,0-1.14-0.36-1.32-1.08l-5.94-27.12h-0.42v27
			c0,0.781-0.42,1.2-1.2,1.2h-5.52c-0.78,0-1.2-0.42-1.2-1.2v-45.6c0-0.781,0.42-1.2,1.2-1.2h7.92c0.72,0,1.14,0.36,1.32,1.08
			l6.66,29.881l6.66-29.881c0.18-0.72,0.6-1.08,1.32-1.08H232.598z"/>
		<path fill="#4E4E4E" d="M263.742,258.96c0,0.599-0.24,1.02-0.96,1.02h-15v12h11.46c0.6,0,0.96,0.359,0.96,1.019v5.94
			c0,0.66-0.36,1.02-0.96,1.02h-11.46v12.12h15c0.72,0,0.96,0.3,0.96,0.96v6c0,0.6-0.24,0.96-0.96,0.96h-22.08
			c-0.54,0-0.9-0.36-0.9-0.96v-46.08c0-0.6,0.36-0.96,0.9-0.96h22.08c0.72,0,0.96,0.36,0.96,0.96V258.96z"/>
		<path fill="#4E4E4E" d="M294.404,252c0.6,0,0.96,0.36,0.96,0.96v46.08c0,0.6-0.36,0.96-0.96,0.96h-5.94
			c-0.54,0-0.9-0.24-1.08-0.781l-9.18-25.62h-0.3v25.44c0,0.6-0.3,0.96-0.96,0.96h-6.24c-0.6,0-0.96-0.36-0.96-0.96v-46.08
			c0-0.6,0.36-0.96,0.96-0.96h5.94c0.54,0,0.9,0.24,1.08,0.781l9.12,25.499h0.36v-25.32c0-0.6,0.3-0.96,0.96-0.96H294.404z"/>
		<path fill="#4E4E4E" d="M323.207,252c0.66,0,0.96,0.36,0.96,0.96v6c0,0.599-0.3,0.96-0.96,0.96h-6.96v39.12
			c0,0.66-0.3,0.96-0.96,0.96h-6.24c-0.6,0-0.96-0.3-0.96-0.96v-39.12h-6.96c-0.6,0-0.96-0.361-0.96-0.96v-6
			c0-0.6,0.36-0.96,0.96-0.96H323.207z"/>
		<path fill="#4E4E4E" d="M343.971,260.64c0-5.64,3-8.64,8.64-8.64h6.72c5.64,0,8.64,3,8.64,8.64v30.72c0,5.64-3,8.64-8.64,8.64
			h-6.72c-5.64,0-8.64-3-8.64-8.64V260.64z M357.831,292.26c1.56,0,2.4-0.781,2.4-2.4v-27.721c0-1.559-0.84-2.4-2.4-2.4h-3.48
			c-1.56,0-2.4,0.84-2.4,2.4v27.721c0,1.619,0.84,2.4,2.4,2.4H357.831z"/>
		<path fill="#4E4E4E" d="M397.973,258.96c0,0.599-0.36,0.96-0.96,0.96h-14.88v12.06h11.28c0.6,0,0.96,0.359,0.96,0.959v6
			c0,0.66-0.36,0.96-0.96,0.96h-11.28v19.14c0,0.6-0.36,0.96-0.96,0.96h-6.24c-0.66,0-0.96-0.36-0.96-0.96v-46.08
			c0-0.6,0.3-0.96,0.96-0.96h22.08c0.6,0,0.96,0.36,0.96,0.96V258.96z"/>
		<path fill="#4E4E4E" d="M434.818,252.96c0-0.6,0.36-0.96,0.96-0.96h6.18c0.72,0,1.02,0.36,1.02,0.96v46.08
			c0,0.6-0.3,0.96-1.02,0.96h-6.18c-0.6,0-0.96-0.36-0.96-0.96v-19.08h-7.68v19.08c0,0.6-0.36,0.96-0.96,0.96h-6.18
			c-0.72,0-1.02-0.36-1.02-0.96v-46.08c0-0.6,0.3-0.96,1.02-0.96h6.18c0.6,0,0.96,0.36,0.96,0.96v19.08h7.68V252.96z"/>
		<path fill="#4E4E4E" d="M456.18,252c0.6,0,0.96,0.36,0.96,0.96v46.08c0,0.6-0.36,0.96-0.96,0.96h-6.24
			c-0.66,0-0.96-0.36-0.96-0.96v-46.08c0-0.6,0.3-0.96,0.96-0.96H456.18z"/>
		<path fill="#4E4E4E" d="M478.501,252c5.64,0,8.64,3,8.64,8.64V267c0,0.6-0.3,0.96-0.96,0.96h-6.24c-0.6,0-0.96-0.36-0.96-0.96
			v-4.68c0-1.56-0.78-2.4-2.4-2.4h-2.88c-1.5,0-2.4,0.839-2.4,2.4v8.28l14.28,4.68c1.02,0.42,1.56,1.08,1.56,2.219v13.861
			c0,5.64-3,8.64-8.64,8.64h-6.72c-5.58,0-8.64-3-8.64-8.64v-6.3c0-0.66,0.36-0.959,0.96-0.959h6.24c0.66,0,0.96,0.299,0.96,0.959
			v4.621c0,1.62,0.9,2.4,2.4,2.4h2.88c1.56,0,2.4-0.78,2.4-2.4v-7.98l-14.22-4.68c-1.08-0.36-1.62-1.08-1.62-2.22v-14.16
			c0-5.64,3.06-8.64,8.64-8.64H478.501z"/>
		<path fill="#4E4E4E" d="M513.785,252c0.66,0,0.96,0.36,0.96,0.96v6c0,0.599-0.3,0.96-0.96,0.96h-6.96v39.12
			c0,0.66-0.3,0.96-0.96,0.96h-6.24c-0.599,0-0.96-0.3-0.96-0.96v-39.12h-6.959c-0.6,0-0.96-0.361-0.96-0.96v-6
			c0-0.6,0.36-0.96,0.96-0.96H513.785z"/>
		<path fill="#4E4E4E" d="M518.346,260.64c0-5.64,3.001-8.64,8.64-8.64h6.72c5.64,0,8.64,3,8.64,8.64v30.72c0,5.64-3,8.64-8.64,8.64
			h-6.72c-5.639,0-8.64-3-8.64-8.64V260.64z M532.207,292.26c1.56,0,2.399-0.781,2.399-2.4v-27.721c0-1.559-0.839-2.4-2.399-2.4
			h-3.48c-1.56,0-2.4,0.84-2.4,2.4v27.721c0,1.619,0.84,2.4,2.4,2.4H532.207z"/>
		<path fill="#4E4E4E" d="M573.009,275.28c0,4.019-1.499,6.659-4.379,7.919l4.14,15.721c0.179,0.72-0.18,1.08-0.84,1.08h-6.24
			c-0.6,0-0.9-0.3-1.021-0.84l-4.019-15.239h-4.14v15.12c0,0.6-0.36,0.96-0.96,0.96h-6.24c-0.6,0-0.96-0.36-0.96-0.96v-46.08
			c0-0.6,0.36-0.96,0.96-0.96h15.06c5.64,0,8.64,3,8.64,8.64V275.28z M556.51,276h5.939c1.56,0,2.401-0.839,2.401-2.4v-11.28
			c0-1.56-0.84-2.4-2.401-2.4h-5.939V276z"/>
		<path fill="#4E4E4E" d="M586.212,252c0.6,0,0.96,0.36,0.96,0.96v46.08c0,0.6-0.36,0.96-0.96,0.96h-6.24
			c-0.66,0-0.96-0.36-0.96-0.96v-46.08c0-0.6,0.3-0.96,0.96-0.96H586.212z"/>
		<path fill="#4E4E4E" d="M617.233,267.12c0,0.6-0.361,0.96-0.96,0.96h-6c-0.66,0-0.96-0.36-0.96-0.96v-4.8c0-1.56-0.84-2.4-2.4-2.4
			h-3.119c-1.621,0-2.4,0.839-2.4,2.4v27.36c0,1.62,0.84,2.4,2.4,2.4h3.119c1.56,0,2.4-0.78,2.4-2.4v-4.8c0-0.6,0.3-0.96,0.96-0.96
			h6c0.599,0,0.96,0.36,0.96,0.96v6.48c0,5.64-3.06,8.64-8.64,8.64h-6.72c-5.64,0-8.701-3-8.701-8.64v-30.72
			c0-5.64,3.06-8.64,8.701-8.64h6.72c5.58,0,8.64,3,8.64,8.64V267.12z"/>
		<path fill="#4E4E4E" d="M638.235,252.96c0-0.6,0.361-0.96,0.96-0.96h14.4c5.64,0,8.64,3,8.64,8.64v14.64c0,5.58-3,8.64-8.64,8.64
			h-7.2v15.12c0,0.6-0.3,0.96-0.96,0.96h-6.24c-0.599,0-0.96-0.36-0.96-0.96V252.96z M651.675,276c1.62,0,2.4-0.9,2.4-2.4v-11.28
			c0-1.56-0.781-2.4-2.4-2.4h-5.28V276H651.675z"/>
		<path fill="#4E4E4E" d="M692.298,275.28c0,4.019-1.499,6.659-4.379,7.919l4.14,15.721c0.179,0.72-0.18,1.08-0.84,1.08h-6.24
			c-0.6,0-0.9-0.3-1.021-0.84l-4.019-15.239h-4.14v15.12c0,0.6-0.36,0.96-0.96,0.96h-6.24c-0.6,0-0.96-0.36-0.96-0.96v-46.08
			c0-0.6,0.36-0.96,0.96-0.96h15.06c5.64,0,8.64,3,8.64,8.64V275.28z M675.799,276h5.939c1.56,0,2.401-0.839,2.401-2.4v-11.28
			c0-1.56-0.84-2.4-2.401-2.4h-5.939V276z"/>
		<path fill="#4E4E4E" d="M697.101,260.64c0-5.64,3.001-8.64,8.64-8.64h6.72c5.64,0,8.64,3,8.64,8.64v30.72c0,5.64-3,8.64-8.64,8.64
			h-6.72c-5.639,0-8.64-3-8.64-8.64V260.64z M710.962,292.26c1.56,0,2.4-0.781,2.4-2.4v-27.721c0-1.559-0.839-2.4-2.4-2.4h-3.48
			c-1.56,0-2.401,0.84-2.401,2.4v27.721c0,1.619,0.84,2.4,2.401,2.4H710.962z"/>
		<path fill="#4E4E4E" d="M727.104,252.96c0-0.6,0.36-0.96,0.96-0.96h14.4c5.64,0,8.64,3,8.64,8.64v14.64c0,5.58-3,8.64-8.64,8.64
			h-7.199v15.12c0,0.6-0.3,0.96-0.96,0.96h-6.24c-0.6,0-0.96-0.36-0.96-0.96V252.96z M740.544,276c1.62,0,2.401-0.9,2.401-2.4
			v-11.28c0-1.56-0.781-2.4-2.401-2.4h-5.279V276H740.544z"/>
		<path fill="#4E4E4E" d="M776.668,300c-0.54,0-0.84-0.3-0.96-0.84l-1.68-8.76h-10.681l-1.62,8.76c-0.12,0.54-0.42,0.84-0.96,0.84
			h-6.42c-0.66,0-0.96-0.36-0.78-1.02l9.96-46.14c0.12-0.6,0.479-0.84,1.02-0.84h8.34c0.54,0,0.9,0.24,1.02,0.84l9.96,46.14
			c0.121,0.66-0.12,1.02-0.839,1.02H776.668z M764.848,283.44h7.68l-3.84-20.94L764.848,283.44z"/>
		<path fill="#4E4E4E" d="M789.271,260.64c0-5.64,3.001-8.64,8.64-8.64h7.92c5.581,0,8.64,3,8.64,8.64v6.24
			c0,0.6-0.36,0.959-0.96,0.959h-6c-0.66,0-0.96-0.359-0.96-0.959v-4.561c0-1.56-0.839-2.4-2.4-2.4h-4.32
			c-1.62,0-2.399,0.839-2.399,2.4v27.36c0,1.62,0.839,2.4,2.399,2.4h4.32c1.56,0,2.4-0.78,2.4-2.4v-8.04h-3.119
			c-0.66,0-0.96-0.361-0.96-0.961v-5.999c0-0.66,0.3-0.96,0.96-0.96h10.079c0.6,0,0.96,0.3,0.96,0.96v16.68
			c0,5.64-3.059,8.64-8.64,8.64h-7.92c-5.639,0-8.64-3-8.64-8.64V260.64z"/>
		<path fill="#4E4E4E" d="M842.435,300c-0.54,0-0.84-0.3-0.96-0.84l-1.68-8.76h-10.681l-1.62,8.76c-0.12,0.54-0.42,0.84-0.96,0.84
			h-6.42c-0.66,0-0.96-0.36-0.78-1.02l9.96-46.14c0.12-0.6,0.48-0.84,1.02-0.84h8.34c0.54,0,0.9,0.24,1.02,0.84l9.96,46.14
			c0.121,0.66-0.12,1.02-0.839,1.02H842.435z M830.615,283.44h7.68l-3.84-20.94L830.615,283.44z"/>
		<path fill="#4E4E4E" d="M879.097,252c0.6,0,0.96,0.36,0.96,0.96v46.08c0,0.6-0.36,0.96-0.96,0.96h-5.939
			c-0.54,0-0.9-0.24-1.08-0.781l-9.18-25.62h-0.3v25.44c0,0.6-0.3,0.96-0.96,0.96h-6.24c-0.599,0-0.96-0.36-0.96-0.96v-46.08
			c0-0.6,0.361-0.96,0.96-0.96h5.94c0.54,0,0.9,0.24,1.08,0.781l9.12,25.499h0.36v-25.32c0-0.6,0.3-0.96,0.96-0.96H879.097z"/>
		<path fill="#4E4E4E" d="M886.059,252.96c0-0.6,0.3-0.96,0.96-0.96h14.4c5.64,0,8.64,3.059,8.64,8.7v30.66c0,5.64-3,8.64-8.64,8.64
			h-14.4c-0.66,0-0.96-0.3-0.96-0.96V252.96z M899.739,292.08c1.56,0,2.401-0.78,2.401-2.4v-27.3c0-1.621-0.84-2.46-2.401-2.46
			h-5.52v32.16H899.739z"/>
		<path fill="#4E4E4E" d="M936.822,300c-0.54,0-0.84-0.3-0.96-0.84l-1.68-8.76h-10.681l-1.62,8.76c-0.12,0.54-0.42,0.84-0.96,0.84
			h-6.42c-0.66,0-0.96-0.36-0.78-1.02l9.96-46.14c0.12-0.6,0.479-0.84,1.02-0.84h8.34c0.54,0,0.9,0.24,1.02,0.84l9.96,46.14
			c0.121,0.66-0.12,1.02-0.839,1.02H936.822z M925.002,283.44h7.68l-3.84-20.94L925.002,283.44z"/>
	</g>
	<g>
		<path fill="#4E4E4E" d="M209.936,336c7.833,0,12.05,4.217,12.05,12.05v55.431c0,7.832-4.217,12.05-12.05,12.05h-92.183
			c-16.267,0-24.1,8.435-24.1,24.099v68.083c0,15.062,8.435,23.498,24.1,23.498h56.033v-24.1c0-7.833,4.218-12.05,12.05-12.05
			h57.237c7.833,0,12.05,4.217,12.05,12.05v24.1h25.305c7.833,0,12.05,4.217,12.05,12.05v55.431c0,7.833-4.217,12.05-12.05,12.05
			h-25.305v195.21c0,7.833-4.218,12.05-12.05,12.05h-142.19c-56.635,0-87.363-30.125-87.363-86.76V614.355
			c0-22.292,16.267-39.162,37.957-42.777v-1.204c-21.69-3.615-37.957-20.485-37.957-42.778V422.76
			c0-56.635,30.727-86.76,87.363-86.76H209.936z M173.786,610.74h-56.033c-16.267,0-24.1,8.435-24.1,24.1v79.53
			c0,16.267,8.435,24.099,24.1,24.099h56.033V610.74z"/>
	</g>
	<g>
		<path fill="#4E4E4E" d="M273.404,352.264c0-10.617,5.647-16.264,16.264-16.264h12.65c10.617,0,16.264,5.647,16.264,16.264v46.533
			c0,10.617-5.647,16.264-16.264,16.264h-12.65c-10.617,0-16.264-5.647-16.264-16.264V352.264z M299.833,400.491
			c2.937,0,4.518-1.469,4.518-4.517v-40.887c0-2.935-1.581-4.517-4.518-4.517h-7.228c-2.937,0-4.518,1.582-4.518,4.517v40.887
			c0,3.049,1.581,4.517,4.518,4.517H299.833z"/>
		<path fill="#4E4E4E" d="M376.299,336c1.13,0,1.807,0.678,1.807,1.807v75.447c0,1.13-0.678,1.807-1.807,1.807h-8.922
			c-1.017,0-1.582-0.452-2.033-1.469l-21.234-43.144v42.806c0,1.13-0.564,1.807-1.807,1.807h-10.617
			c-1.129,0-1.807-0.678-1.807-1.807v-75.447c0-1.13,0.678-1.807,1.807-1.807h8.923c1.017,0,1.581,0.452,2.033,1.468l21.233,43.145
			v-42.806c0-1.13,0.565-1.807,1.807-1.807H376.299z"/>
		<path fill="#4E4E4E" d="M434.693,364.461c0,1.13-0.678,1.807-1.807,1.807h-10.617c-1.242,0-1.807-0.678-1.807-1.807V355.2
			c0-2.936-1.581-4.518-4.518-4.518h-7.228c-3.05,0-4.518,1.582-4.518,4.518V396.2c0,3.049,1.581,4.517,4.518,4.517h7.228
			c2.937,0,4.518-1.469,4.518-4.517v-9.601c0-1.129,0.564-1.807,1.807-1.807h10.617c1.129,0,1.807,0.678,1.807,1.807v12.198
			c0,10.617-5.76,16.264-16.264,16.264h-12.65c-10.617,0-16.377-5.647-16.377-16.264v-46.533c0-10.617,5.76-16.264,16.377-16.264
			h12.65c10.504,0,16.264,5.647,16.264,16.264V364.461z"/>
		<path fill="#4E4E4E" d="M491.053,349.102c0,1.129-0.452,1.92-1.807,1.92h-27.897v17.393h21.233c1.129,0,1.807,0.677,1.807,1.92
			v11.182c0,1.241-0.678,1.92-1.807,1.92h-21.233v16.716h27.897c1.355,0,1.807,0.565,1.807,1.807v11.294
			c0,1.13-0.452,1.807-1.807,1.807h-41.563c-1.017,0-1.694-0.678-1.694-1.807v-75.447c0-1.13,0.678-1.807,1.694-1.807h41.563
			c1.355,0,1.807,0.678,1.807,1.807V349.102z"/>
		<path fill="#4E4E4E" d="M572.941,415.061c-1.016,0-1.581-0.565-1.807-1.582l-3.615-14.231h-21.233l-3.501,14.231
			c-0.226,1.017-0.791,1.582-1.807,1.582h-11.068c-1.242,0-1.807-0.678-1.469-1.92l18.749-75.56c0.226-1.129,0.904-1.581,1.92-1.581
			h15.699c1.016,0,1.694,0.452,1.92,1.581l18.749,75.56c0.339,1.242-0.226,1.92-1.581,1.92H572.941z M549.787,386.148h14.231
			l-7.115-30.721L549.787,386.148z"/>
		<path fill="#4E4E4E" d="M637.66,364.461c0,1.13-0.677,1.807-1.807,1.807h-10.616c-1.242,0-1.807-0.678-1.807-1.807V355.2
			c0-2.936-1.581-4.518-4.518-4.518h-7.228c-3.049,0-4.517,1.582-4.517,4.518V396.2c0,3.049,1.581,4.517,4.517,4.517h7.228
			c2.937,0,4.518-1.469,4.518-4.517v-9.601c0-1.129,0.565-1.807,1.807-1.807h10.616c1.13,0,1.807,0.678,1.807,1.807v12.198
			c0,10.617-5.76,16.264-16.264,16.264h-12.65c-10.617,0-16.377-5.647-16.377-16.264v-46.533c0-10.617,5.76-16.264,16.377-16.264
			h12.65c10.504,0,16.264,5.647,16.264,16.264V364.461z"/>
		<path fill="#4E4E4E" d="M694.133,398.797c0,7.115-2.485,11.972-7.342,14.457l4.518,9.712c0.565,1.242-0.339,2.034-1.581,2.034
			h-11.747c-1.129,0-1.468-0.678-1.92-1.581l-3.84-8.357h-7.002c-10.617,0-16.264-5.647-16.264-16.264v-46.533
			c0-10.617,5.647-16.264,16.264-16.264h12.649c10.617,0,16.264,5.647,16.264,16.264V398.797z M663.638,395.974
			c0,3.049,1.581,4.517,4.517,4.517h7.228c2.936,0,4.517-1.469,4.517-4.517v-40.887c0-2.935-1.581-4.517-4.517-4.517h-7.228
			c-2.936,0-4.517,1.582-4.517,4.517V395.974z"/>
		<path fill="#4E4E4E" d="M748.349,336c1.241,0,2.259,1.016,2.259,2.259v60.539c0,10.617-5.647,16.264-16.264,16.264h-12.65
			c-10.617,0-16.264-5.647-16.264-16.264v-60.539c0-1.242,1.016-2.259,2.259-2.259h10.843c1.242,0,2.259,1.016,2.259,2.259v57.376
			c0,3.05,1.581,4.517,4.517,4.517h5.873c2.936,0,4.517-1.468,4.517-4.517v-57.376c0-1.242,1.017-2.259,2.259-2.259H748.349z"/>
		<path fill="#4E4E4E" d="M763.711,415.061c-1.242,0-1.807-0.678-1.807-1.807v-75.447c0-1.13,0.565-1.807,1.807-1.807h11.746
			c1.13,0,1.807,0.678,1.807,1.807v75.447c0,1.13-0.677,1.807-1.807,1.807H763.711z"/>
		<path fill="#4E4E4E" d="M833.737,374.966c0,6.551-2.146,11.182-6.325,13.779l5.872,24.283c0.339,1.356-0.339,2.034-1.581,2.034
			h-11.068c-1.13,0-1.694-0.565-1.92-1.582l-5.421-22.249h-10.052v22.024c0,1.13-0.677,1.807-1.807,1.807h-11.068
			c-1.13,0-1.807-0.678-1.807-1.807v-75.447c0-1.13,0.678-1.807,1.807-1.807h27.106c10.617,0,16.264,5.647,16.264,16.264V374.966z
			 M803.242,376.661h11.294c2.936,0,4.517-1.582,4.517-4.518v-17.055c0-2.935-1.581-4.517-4.517-4.517h-11.294V376.661z"/>
		<path fill="#4E4E4E" d="M890.098,349.102c0,1.129-0.451,1.92-1.806,1.92h-27.897v17.393h21.233c1.13,0,1.807,0.677,1.807,1.92
			v11.182c0,1.241-0.677,1.92-1.807,1.92h-21.233v16.716h27.897c1.355,0,1.806,0.565,1.806,1.807v11.294
			c0,1.13-0.451,1.807-1.806,1.807h-41.564c-1.016,0-1.694-0.678-1.694-1.807v-75.447c0-1.13,0.677-1.807,1.694-1.807h41.564
			c1.355,0,1.806,0.678,1.806,1.807V349.102z"/>
		<path fill="#4E4E4E" d="M901.394,337.807c0-1.13,0.565-1.807,1.807-1.807h27.106c10.617,0,16.264,5.76,16.264,16.377v46.42
			c0,10.617-5.647,16.264-16.264,16.264h-27.106c-1.242,0-1.807-0.565-1.807-1.807V337.807z M927.146,400.152
			c2.936,0,4.517-1.468,4.517-4.517v-40.096c0-3.05-1.581-4.63-4.517-4.63h-10.391v49.243H927.146z"/>
	</g>
	<path fill="#4E4E4E" d="M526.565,531.342c3.271,3.271,3.271,6.905,0,10.177l-54.156,54.156l54.156,54.156
		c3.271,3.271,3.271,6.906,0,10.178l-24.352,24.352c-3.271,3.271-6.906,3.271-10.178,0l-54.156-54.156l-54.156,54.156
		c-3.271,3.271-6.906,3.271-10.177,0l-24.352-24.352c-3.271-3.271-3.271-6.906,0-10.178l54.156-54.156l-54.156-54.156
		c-3.271-3.271-3.271-6.906,0-10.177l24.352-24.353c3.271-3.271,6.906-3.271,10.177,0l54.156,54.156l54.156-54.156
		c3.271-3.271,6.906-3.271,10.178,0L526.565,531.342z"/>
	<path fill="#4E4E4E" d="M639.237,447c3.635,0,5.815,2.18,5.815,5.814v279.141c0,3.635-2.181,5.816-5.815,5.816h-37.8
		c-3.998,0-5.815-2.182-5.815-5.816V502.246l-22.535,2.908c-4.725,0.727-7.633-1.818-7.633-6.543v-34.893
		c0-4.725,2.181-7.27,6.906-7.633L639.237,447z"/>
	<path fill="#4E4E4E" d="M739.553,642.18c-3.634,2.182-5.088,4.725-5.088,8.723v31.622c0,4.726,2.544,7.269,7.27,7.269h39.254
		v-14.901c0-4.726,2.544-7.269,7.27-7.269h34.893c4.725,0,7.269,2.543,7.269,7.269v55.61c0,4.725-2.544,7.27-7.269,7.27H692.303
		c-4.725,0-7.27-2.545-7.27-7.27V623.279c0-6.905,2.545-9.812,9.45-13.447l86.505-46.523v-53.793c0-9.45-5.452-14.539-14.539-14.539
		h-17.446c-9.813,0-14.538,5.089-14.538,14.539v28.35c0,3.635-2.181,5.816-5.815,5.816h-37.801c-3.998,0-5.815-2.182-5.815-5.816
		v-38.527c0-34.165,18.174-52.338,52.339-52.338h40.708c33.803,0,52.339,18.173,52.339,52.338v85.777
		c0,6.906-2.907,9.814-9.813,13.449L739.553,642.18z"/>
	<path fill="#4E4E4E" d="M954.137,491.614c0,25.806-21.081,46.887-46.887,46.887c-26.533,0-47.25-21.081-47.25-46.887
		C860,465.445,880.717,444,907.25,444C933.056,444,954.137,465.445,954.137,491.614z M890.53,491.614
		c0,8.724,7.633,16.356,16.72,16.356c8.723,0,16.355-7.633,16.355-16.356c0-9.087-7.633-16.72-16.355-16.72
		C898.163,474.895,890.53,482.527,890.53,491.614z"/>
	<g>
		<path fill="#4E4E4E" d="M13.618,867.515c0-12.086,6.428-18.515,18.514-18.515h14.4c12.085,0,18.514,6.429,18.514,18.515v52.97
			c0,12.086-6.429,18.514-18.514,18.514h-14.4c-12.086,0-18.514-6.428-18.514-18.514V867.515z M43.704,922.415
			c3.343,0,5.142-1.672,5.142-5.144v-46.542c0-3.342-1.8-5.143-5.142-5.143h-8.229c-3.343,0-5.143,1.801-5.143,5.143v46.542
			c0,3.472,1.8,5.144,5.143,5.144H43.704z"/>
		<path fill="#4E4E4E" d="M132.421,849c1.928,0,2.7,1.029,2.314,2.83l-20.443,84.856c-0.386,1.543-1.285,2.314-2.828,2.314H98.607
			c-1.543,0-2.443-0.771-2.829-2.314L75.464,851.83c-0.386-1.801,0.386-2.83,2.314-2.83h11.7c1.543,0,2.443,0.771,2.829,2.315
			l12.728,58.113l12.857-58.113c0.386-1.544,1.286-2.315,2.829-2.315H132.421z"/>
		<path fill="#4E4E4E" d="M195.166,863.914c0,1.287-0.514,2.186-2.057,2.186h-31.757V885.9h24.171c1.285,0,2.057,0.771,2.057,2.186
			v12.728c0,1.415-0.771,2.186-2.057,2.186h-24.171v19.028h31.757c1.543,0,2.057,0.643,2.057,2.057v12.857
			c0,1.286-0.514,2.057-2.057,2.057h-47.314c-1.157,0-1.928-0.771-1.928-2.057v-85.884c0-1.287,0.771-2.058,1.928-2.058h47.314
			c1.543,0,2.057,0.771,2.057,2.058V863.914z"/>
		<path fill="#4E4E4E" d="M258.169,893.358c0,7.456-2.443,12.728-7.2,15.686l6.686,27.642c0.386,1.543-0.386,2.314-1.8,2.314h-12.6
			c-1.286,0-1.928-0.643-2.186-1.8l-6.172-25.329h-11.442v25.071c0,1.286-0.771,2.057-2.057,2.057h-12.6
			c-1.286,0-2.057-0.771-2.057-2.057v-85.884c0-1.287,0.771-2.058,2.057-2.058h30.857c12.086,0,18.514,6.429,18.514,18.515V893.358z
			 M223.455,895.285h12.857c3.343,0,5.143-1.8,5.143-5.142v-19.415c0-3.342-1.8-5.143-5.143-5.143h-12.857V895.285z"/>
		<path fill="#4E4E4E" d="M317.828,849c1.414,0,2.057,0.771,2.057,2.058v12.856c0,1.287-0.643,2.058-2.057,2.058h-14.914v70.97
			c0,1.414-0.643,2.057-2.057,2.057h-13.371c-1.285,0-2.057-0.643-2.057-2.057v-70.97h-14.914c-1.286,0-2.057-0.771-2.057-2.058
			v-12.856c0-1.287,0.771-2.058,2.057-2.058H317.828z"/>
		<path fill="#4E4E4E" d="M413.746,863.914c0,1.287-0.771,2.058-2.057,2.058h-31.885v21.986h24.171c1.285,0,2.057,0.771,2.057,2.056
			v12.857c0,1.415-0.771,2.057-2.057,2.057h-24.171v32.014c0,1.286-0.771,2.057-2.057,2.057h-13.371
			c-1.414,0-2.057-0.771-2.057-2.057v-85.884c0-1.287,0.643-2.058,2.057-2.058h47.314c1.286,0,2.057,0.771,2.057,2.058V863.914z"/>
		<path fill="#4E4E4E" d="M478.034,893.358c0,7.456-2.443,12.728-7.2,15.686l6.686,27.642c0.386,1.543-0.386,2.314-1.8,2.314h-12.6
			c-1.286,0-1.928-0.643-2.186-1.8l-6.172-25.329H443.32v25.071c0,1.286-0.771,2.057-2.057,2.057h-12.6
			c-1.286,0-2.057-0.771-2.057-2.057v-85.884c0-1.287,0.771-2.058,2.057-2.058h30.857c12.085,0,18.514,6.429,18.514,18.515V893.358z
			 M443.32,895.285h12.857c3.343,0,5.143-1.8,5.143-5.142v-19.415c0-3.342-1.8-5.143-5.143-5.143H443.32V895.285z"/>
		<path fill="#4E4E4E" d="M536.539,939c-1.158,0-1.801-0.643-2.057-1.8l-4.115-16.2h-24.171l-3.986,16.2
			c-0.257,1.156-0.9,1.8-2.057,1.8h-12.599c-1.415,0-2.057-0.771-1.672-2.186l21.342-86.013c0.258-1.285,1.029-1.801,2.186-1.801
			h17.871c1.157,0,1.928,0.516,2.186,1.801l21.342,86.013c0.386,1.415-0.257,2.186-1.8,2.186H536.539z M510.181,906.086h16.199
			l-8.1-34.971L510.181,906.086z"/>
		<path fill="#4E4E4E" d="M558.656,867.515c0-12.086,6.428-18.515,18.513-18.515h14.401c11.957,0,18.513,6.429,18.513,18.515v9.513
			c0,1.286-0.771,2.057-2.056,2.057h-12.086c-1.414,0-2.056-0.771-2.056-2.057v-6.3c0-3.342-1.801-5.143-5.143-5.143h-8.228
			c-3.471,0-5.143,1.801-5.143,5.143v46.542c0,3.472,1.8,5.144,5.143,5.144h8.228c3.342,0,5.143-1.672,5.143-5.144v-11.185h-6.686
			c-1.415,0-2.057-0.771-2.057-2.057v-12.857c0-1.415,0.643-2.057,2.057-2.057h20.829c1.285,0,2.056,0.642,2.056,2.057v29.314
			c0,12.086-6.557,18.514-18.513,18.514h-14.401c-12.085,0-18.513-6.428-18.513-18.514V867.515z"/>
		<path fill="#4E4E4E" d="M693.657,849c1.672,0,2.572,0.9,2.572,2.572v84.857c0,1.672-0.9,2.571-2.572,2.571h-11.957
			c-1.672,0-2.572-0.899-2.572-2.571V885.9h-0.9l-12.085,50.914c-0.386,1.415-1.285,2.186-2.828,2.186h-7.586
			c-1.543,0-2.443-0.771-2.829-2.186L640.815,885.9h-0.9v50.529c0,1.672-0.899,2.571-2.571,2.571h-11.829
			c-1.672,0-2.571-0.899-2.571-2.571v-84.857c0-1.672,0.899-2.572,2.571-2.572h16.972c1.543,0,2.442,0.771,2.828,2.186
			l14.272,57.343l14.272-57.343c0.386-1.415,1.285-2.186,2.828-2.186H693.657z"/>
		<path fill="#4E4E4E" d="M760.39,863.914c0,1.287-0.515,2.186-2.057,2.186h-31.757V885.9h24.171c1.286,0,2.057,0.771,2.057,2.186
			v12.728c0,1.415-0.771,2.186-2.057,2.186h-24.171v19.028h31.757c1.543,0,2.057,0.643,2.057,2.057v12.857
			c0,1.286-0.515,2.057-2.057,2.057h-47.314c-1.157,0-1.928-0.771-1.928-2.057v-85.884c0-1.287,0.771-2.058,1.928-2.058h47.314
			c1.543,0,2.057,0.771,2.057,2.058V863.914z"/>
		<path fill="#4E4E4E" d="M826.091,849c1.285,0,2.056,0.771,2.056,2.058v85.884c0,1.286-0.771,2.057-2.056,2.057h-10.157
			c-1.157,0-1.801-0.515-2.314-1.671l-24.172-49.115v48.729c0,1.286-0.643,2.057-2.056,2.057h-12.086
			c-1.285,0-2.056-0.771-2.056-2.057v-85.884c0-1.287,0.771-2.058,2.056-2.058h10.157c1.157,0,1.801,0.516,2.315,1.672
			l24.171,49.114v-48.728c0-1.287,0.643-2.058,2.057-2.058H826.091z"/>
		<path fill="#4E4E4E" d="M887.806,849c1.415,0,2.057,0.771,2.057,2.058v12.856c0,1.287-0.643,2.058-2.057,2.058h-14.914v70.97
			c0,1.414-0.643,2.057-2.057,2.057h-13.37c-1.286,0-2.057-0.643-2.057-2.057v-70.97h-14.914c-1.286,0-2.057-0.771-2.057-2.058
			v-12.856c0-1.287,0.771-2.058,2.057-2.058H887.806z"/>
		<path fill="#4E4E4E" d="M933.065,849c12.085,0,18.513,6.429,18.513,18.515v8.485c0,1.285-0.643,2.056-2.056,2.056h-12.986
			c-1.286,0-2.057-0.771-2.057-2.056v-5.4c0-3.343-1.672-5.144-5.143-5.144h-7.071c-3.214,0-5.143,1.801-5.143,5.144v10.928
			l31.114,10.028c2.185,0.771,3.342,2.314,3.342,4.757v24.171c0,12.086-6.428,18.514-18.513,18.514h-14.401
			c-11.957,0-18.513-6.428-18.513-18.514v-8.356c0-1.415,0.771-2.057,2.056-2.057h12.986c1.415,0,2.057,0.642,2.057,2.057v5.4
			c0,3.471,1.928,5.142,5.143,5.142h6.943c3.343,0,5.143-1.671,5.143-5.142v-12.986l-30.857-10.029
			c-2.314-0.771-3.471-2.314-3.471-4.757v-22.241c0-12.086,6.557-18.515,18.513-18.515H933.065z"/>
	</g>
	<g>
		<path fill="#4E4E4E" d="M294.207,773c5.287,0,8.1,2.812,8.1,8.099v5.962c0,0.563-0.281,0.9-0.9,0.9h-5.85
			c-0.562,0-0.9-0.337-0.9-0.9v-4.387c0-1.463-0.732-2.25-2.25-2.25h-2.7c-1.406,0-2.25,0.787-2.25,2.25v7.763l13.388,4.387
			c0.956,0.394,1.463,1.013,1.463,2.082V809.9c0,5.287-2.813,8.1-8.1,8.1h-6.3c-5.231,0-8.1-2.813-8.1-8.1v-5.906
			c0-0.619,0.337-0.9,0.9-0.9h5.85c0.619,0,0.9,0.281,0.9,0.9v4.332c0,1.518,0.844,2.249,2.25,2.249h2.7
			c1.463,0,2.25-0.731,2.25-2.249v-7.481l-13.332-4.388c-1.012-0.338-1.519-1.012-1.519-2.081v-13.276
			c0-5.287,2.869-8.099,8.1-8.099H294.207z"/>
		<path fill="#4E4E4E" d="M344.046,773c0.731,0,1.125,0.45,1.069,1.181l-4.837,42.75c-0.057,0.732-0.45,1.069-1.181,1.069h-5.513
			c-0.675,0-1.069-0.337-1.238-1.012l-5.85-25.426l-5.906,25.482c-0.169,0.619-0.563,0.956-1.238,0.956h-5.625
			c-0.732,0-1.125-0.337-1.182-1.069l-4.612-42.75c-0.056-0.731,0.337-1.181,1.069-1.181h5.344c0.675,0,1.125,0.394,1.182,1.068
			l2.194,26.325h0.281l5.569-26.382c0.169-0.675,0.562-1.011,1.237-1.011h3.375c0.675,0,1.068,0.336,1.237,1.011l5.513,26.382h0.281
			l2.306-26.325c0.056-0.675,0.506-1.068,1.181-1.068H344.046z"/>
		<path fill="#4E4E4E" d="M356.365,773c0.563,0,0.9,0.336,0.9,0.899v43.2c0,0.563-0.337,0.9-0.9,0.9h-5.85
			c-0.619,0-0.9-0.337-0.9-0.9v-43.2c0-0.563,0.281-0.899,0.9-0.899H356.365z"/>
		<path fill="#4E4E4E" d="M386.009,773c0.563,0,0.9,0.336,0.9,0.899v43.2c0,0.563-0.337,0.9-0.9,0.9h-5.569
			c-0.506,0-0.844-0.225-1.012-0.731l-8.606-24.019h-0.281V817.1c0,0.563-0.281,0.9-0.9,0.9h-5.85c-0.563,0-0.9-0.337-0.9-0.9v-43.2
			c0-0.563,0.337-0.899,0.9-0.899h5.569c0.506,0,0.844,0.224,1.012,0.73l8.55,23.907h0.337v-23.738c0-0.563,0.281-0.899,0.9-0.899
			H386.009z"/>
		<path fill="#4E4E4E" d="M392.534,781.099c0-5.287,2.812-8.099,8.1-8.099h7.425c5.231,0,8.1,2.812,8.1,8.099v5.85
			c0,0.563-0.337,0.9-0.9,0.9h-5.625c-0.619,0-0.9-0.337-0.9-0.9v-4.275c0-1.463-0.788-2.25-2.25-2.25h-4.05
			c-1.519,0-2.25,0.787-2.25,2.25v25.651c0,1.518,0.788,2.249,2.25,2.249h4.05c1.463,0,2.25-0.731,2.25-2.249v-7.539h-2.925
			c-0.618,0-0.9-0.336-0.9-0.899v-5.626c0-0.618,0.281-0.899,0.9-0.899h9.45c0.563,0,0.9,0.281,0.9,0.899V809.9
			c0,5.287-2.869,8.1-8.1,8.1h-7.425c-5.288,0-8.1-2.813-8.1-8.1V781.099z"/>
		<path fill="#4E4E4E" d="M436.185,773c5.287,0,8.1,2.812,8.1,8.099v5.962c0,0.563-0.281,0.9-0.9,0.9h-5.85
			c-0.562,0-0.9-0.337-0.9-0.9v-4.387c0-1.463-0.732-2.25-2.25-2.25h-2.7c-1.406,0-2.25,0.787-2.25,2.25v7.763l13.388,4.387
			c0.956,0.394,1.463,1.013,1.463,2.082V809.9c0,5.287-2.813,8.1-8.1,8.1h-6.3c-5.231,0-8.1-2.813-8.1-8.1v-5.906
			c0-0.619,0.337-0.9,0.9-0.9h5.85c0.619,0,0.9,0.281,0.9,0.9v4.332c0,1.518,0.844,2.249,2.25,2.249h2.7
			c1.463,0,2.25-0.731,2.25-2.249v-7.481l-13.332-4.388c-1.012-0.338-1.519-1.012-1.519-2.081v-13.276
			c0-5.287,2.869-8.099,8.1-8.099H436.185z"/>
		<path fill="#4E4E4E" d="M484.448,773c0.619,0,0.9,0.336,0.9,0.899v5.626c0,0.562-0.281,0.899-0.9,0.899h-6.525V817.1
			c0,0.619-0.281,0.9-0.9,0.9h-5.85c-0.562,0-0.9-0.281-0.9-0.9v-36.675h-6.525c-0.563,0-0.9-0.337-0.9-0.899v-5.626
			c0-0.563,0.337-0.899,0.9-0.899H484.448z"/>
		<path fill="#4E4E4E" d="M504.698,773.899c0-0.563,0.337-0.899,0.9-0.899h5.793c0.675,0,0.956,0.336,0.956,0.899v43.2
			c0,0.563-0.281,0.9-0.956,0.9h-5.793c-0.563,0-0.9-0.337-0.9-0.9v-17.887h-7.2V817.1c0,0.563-0.337,0.9-0.9,0.9h-5.793
			c-0.676,0-0.956-0.337-0.956-0.9v-43.2c0-0.563,0.28-0.899,0.956-0.899h5.793c0.563,0,0.9,0.336,0.9,0.899v17.888h7.2V773.899z"/>
		<path fill="#4E4E4E" d="M540.417,779.525c0,0.562-0.225,0.956-0.9,0.956h-14.063v11.25h10.744c0.563,0,0.9,0.338,0.9,0.956v5.569
			c0,0.618-0.337,0.956-0.9,0.956h-10.744v11.362h14.063c0.675,0,0.9,0.281,0.9,0.9v5.625c0,0.563-0.225,0.9-0.9,0.9h-20.7
			c-0.506,0-0.843-0.337-0.843-0.9v-43.2c0-0.563,0.338-0.899,0.843-0.899h20.7c0.675,0,0.9,0.336,0.9,0.899V779.525z"/>
		<path fill="#4E4E4E" d="M560.106,773.899c0-0.563,0.28-0.899,0.899-0.899h13.501c5.287,0,8.099,2.869,8.099,8.156V809.9
			c0,5.287-2.812,8.1-8.099,8.1h-13.501c-0.619,0-0.899-0.281-0.899-0.9V773.899z M572.931,810.575c1.462,0,2.25-0.731,2.25-2.249
			v-25.595c0-1.519-0.788-2.306-2.25-2.306h-5.175v30.15H572.931z"/>
		<path fill="#4E4E4E" d="M594.981,773c0.563,0,0.9,0.336,0.9,0.899v43.2c0,0.563-0.337,0.9-0.9,0.9h-5.85
			c-0.619,0-0.899-0.337-0.899-0.9v-43.2c0-0.563,0.28-0.899,0.899-0.899H594.981z"/>
		<path fill="#4E4E4E" d="M624.005,773c0.9,0,1.126,0.562,0.844,1.35l-14.007,36.225h12.375c0.563,0,0.9,0.281,0.9,0.9v5.569
			c0,0.563-0.337,0.9-0.9,0.956h-21.882c-0.9,0-1.182-0.562-0.844-1.35l14.007-36.169h-11.643c-0.563,0-0.9-0.338-0.9-0.901v-5.624
			c0-0.62,0.337-0.901,0.9-0.956H624.005z"/>
		<path fill="#4E4E4E" d="M650.837,773c0.9,0,1.126,0.562,0.844,1.35l-14.007,36.225h12.375c0.563,0,0.9,0.281,0.9,0.9v5.569
			c0,0.563-0.337,0.9-0.9,0.956h-21.882c-0.9,0-1.182-0.562-0.843-1.35l14.006-36.169h-11.643c-0.563,0-0.9-0.338-0.9-0.901v-5.624
			c0-0.62,0.337-0.901,0.9-0.956H650.837z"/>
		<path fill="#4E4E4E" d="M682.619,773c0.844,0,1.238,0.506,0.9,1.293l-10.293,25.032v17.551c0,0.731-0.395,1.125-1.126,1.125h-5.4
			c-0.732,0-1.126-0.394-1.126-1.125v-17.551l-10.293-25.032c-0.337-0.787,0.056-1.293,0.9-1.293h5.625
			c0.675,0,1.068,0.281,1.294,0.899l6.3,16.144l6.3-16.144c0.225-0.618,0.619-0.899,1.294-0.899H682.619z"/>
		<path fill="#4E4E4E" d="M724.189,791.45c0,2.081-1.519,3.656-3.544,3.994v0.113c2.025,0.336,3.544,1.913,3.544,3.993v10.35
			c0,5.287-2.869,8.1-8.156,8.1h-13.501c-0.562,0-0.899-0.337-0.899-0.9v-43.2c0-0.618,0.337-0.899,0.899-0.899h13.501
			c5.287,0,8.156,2.812,8.156,8.099V791.45z M714.457,791.787c1.462,0,2.25-0.788,2.25-2.194v-6.919c0-1.463-0.732-2.25-2.25-2.25
			h-5.119v11.363H714.457z M714.457,810.575c1.462,0,2.25-0.731,2.25-2.249v-6.864c0-1.462-0.732-2.249-2.25-2.249h-5.119v11.362
			H714.457z"/>
		<path fill="#4E4E4E" d="M737.463,810.575h13.388c0.619,0,0.9,0.339,0.9,0.9v5.625c0,0.619-0.281,0.9-0.9,0.9h-20.138
			c-0.562,0-0.899-0.281-0.899-0.9v-43.2c0-0.563,0.338-0.899,0.899-0.899h5.85c0.619,0,0.9,0.336,0.9,0.899V810.575z"/>
		<path fill="#4E4E4E" d="M777.401,818c-0.506,0-0.787-0.281-0.9-0.788L774.927,809h-10.013l-1.519,8.212
			c-0.112,0.507-0.394,0.788-0.899,0.788h-6.019c-0.619,0-0.899-0.337-0.731-0.956l9.338-43.257c0.112-0.563,0.45-0.787,0.956-0.787
			h7.818c0.507,0,0.844,0.224,0.956,0.787l9.338,43.257c0.112,0.619-0.113,0.956-0.788,0.956H777.401z M766.32,802.475h7.2
			l-3.6-19.633L766.32,802.475z"/>
		<path fill="#4E4E4E" d="M811.209,787.175c0,0.562-0.338,0.9-0.9,0.9h-5.625c-0.619,0-0.9-0.338-0.9-0.9v-4.5
			c0-1.463-0.788-2.25-2.25-2.25h-2.925c-1.519,0-2.25,0.787-2.25,2.25v25.651c0,1.518,0.788,2.249,2.25,2.249h2.925
			c1.462,0,2.25-0.731,2.25-2.249v-4.5c0-0.563,0.281-0.9,0.9-0.9h5.625c0.562,0,0.9,0.337,0.9,0.9v6.075c0,5.287-2.869,8.1-8.1,8.1
			h-6.3c-5.288,0-8.156-2.813-8.156-8.1v-28.8c0-5.287,2.868-8.099,8.156-8.099h6.3c5.231,0,8.1,2.812,8.1,8.099V787.175z"/>
		<path fill="#4E4E4E" d="M834.947,818c-0.675,0-1.068-0.281-1.294-0.843l-7.088-16.706l-2.081,3.993v12.432
			c0,0.731-0.394,1.125-1.125,1.125h-5.401c-0.731,0-1.125-0.394-1.125-1.125v-42.751c0-0.731,0.394-1.125,1.125-1.125h5.401
			c0.731,0,1.125,0.394,1.125,1.125v17.437l8.662-17.719c0.281-0.562,0.675-0.843,1.294-0.843h5.906c0.844,0,1.182,0.562,0.788,1.35
			l-9.562,19.63l10.181,22.726c0.394,0.732,0.056,1.294-0.844,1.294H834.947z"/>
		<path fill="#4E4E4E" d="M882.197,818c-0.506,0-0.787-0.281-0.9-0.788L879.722,809h-10.013l-1.519,8.212
			c-0.112,0.507-0.394,0.788-0.899,0.788h-6.019c-0.619,0-0.899-0.337-0.731-0.956l9.338-43.257c0.112-0.563,0.45-0.787,0.956-0.787
			h7.818c0.507,0,0.844,0.224,0.956,0.787l9.338,43.257c0.112,0.619-0.113,0.956-0.788,0.956H882.197z M871.115,802.475h7.2
			l-3.6-19.633L871.115,802.475z"/>
		<path fill="#4E4E4E" d="M919.098,816.65c0.337,0.788,0.056,1.35-0.843,1.35h-5.794c-0.619,0-1.068-0.225-1.294-0.788l-5.4-13.612
			l-5.401,13.612c-0.225,0.563-0.675,0.788-1.294,0.788h-5.794c-0.899,0-1.181-0.562-0.843-1.35l8.887-21.6l-8.55-20.7
			c-0.337-0.788-0.056-1.35,0.843-1.35h5.626c0.618,0,1.069,0.224,1.294,0.787l5.231,13.332l5.23-13.332
			c0.225-0.563,0.676-0.787,1.294-0.787h5.626c0.899,0,1.181,0.562,0.843,1.35l-8.606,20.7L919.098,816.65z"/>
		<path fill="#4E4E4E" d="M946.717,779.525c0,0.562-0.225,0.956-0.9,0.956h-14.063v11.25h10.744c0.563,0,0.9,0.338,0.9,0.956v5.569
			c0,0.618-0.337,0.956-0.9,0.956h-10.744v11.362h14.063c0.675,0,0.9,0.281,0.9,0.9v5.625c0,0.563-0.225,0.9-0.9,0.9h-20.7
			c-0.506,0-0.843-0.337-0.843-0.9v-43.2c0-0.563,0.337-0.899,0.843-0.899h20.7c0.675,0,0.9,0.336,0.9,0.899V779.525z"/>
	</g>
</g>
</svg>
